<svg width="24" height="24" viewBox="0 0 24 24" fill="none" xmlns="http://www.w3.org/2000/svg">
<circle cx="12" cy="12" r="12" fill="#41C4AB"/>
<g clip-path="url(#clip0)">
<path d="M12 2.99902C10.111 3.00121 8.3 3.75258 6.96428 5.0883C5.62855 6.42402 4.87718 8.23503 4.875 10.124C4.875 15.0343 9.7785 19.49 11.2808 20.7388C11.4827 20.9066 11.737 20.9984 11.9996 20.9984C12.2622 20.9984 12.5165 20.9066 12.7185 20.7388C14.2185 19.49 19.125 15.0328 19.125 10.1233C19.1226 8.23441 18.3712 6.4236 17.0355 5.08803C15.6998 3.75247 13.8889 3.00121 12 2.99902V2.99902ZM12 13.874C11.2583 13.874 10.5333 13.6541 9.91661 13.242C9.29993 12.83 8.81928 12.2443 8.53545 11.5591C8.25162 10.8739 8.17736 10.1199 8.32206 9.39244C8.46675 8.66501 8.8239 7.99682 9.34835 7.47237C9.8728 6.94793 10.541 6.59077 11.2684 6.44608C11.9958 6.30138 12.7498 6.37565 13.4351 6.65948C14.1203 6.9433 14.706 7.42395 15.118 8.04064C15.5301 8.65732 15.75 9.38234 15.75 10.124C15.75 10.6165 15.653 11.1041 15.4645 11.5591C15.2761 12.0141 14.9999 12.4275 14.6517 12.7757C14.3034 13.1239 13.89 13.4001 13.4351 13.5886C12.9801 13.777 12.4925 13.874 12 13.874Z" fill="white"/>
</g>
<defs>
<clipPath id="clip0">
<rect width="18" height="18" fill="white" transform="translate(3 2.99902)"/>
</clipPath>
</defs>
</svg>
