<svg width="36" height="35" viewBox="0 0 36 35" fill="none" xmlns="http://www.w3.org/2000/svg">
<g id="hanoi voyages 3" clip-path="url(#clip0_2819_20679)">
<path id="Vector" d="M16.4189 1.47056C15.7442 2.77312 14.7506 3.09989 13.2533 3.03635C9.62759 2.88091 6.29447 5.77989 5.94566 9.06692C5.81601 10.2878 5.91469 11.0854 7.55199 10.6974C8.45956 10.4829 9.46237 10.5011 10.3998 10.6055C12.1277 10.7984 13.2682 11.8139 13.7272 13.4534C14.1391 14.9216 13.6216 16.1765 12.465 17.1239C11.1043 18.2416 9.57596 18.2654 8.08207 17.4189C5.04383 15.6966 3.4616 13.0495 3.40194 9.63537C3.33883 5.98186 5.06792 3.22357 8.29549 1.45468C10.8931 0.0307119 13.5837 -0.837282 16.4189 1.47056ZM12.3147 14.5029C12.348 13.02 11.3268 12.0919 9.71938 12.1667C8.572 12.2201 7.12631 12.0624 6.68228 13.4489C6.37708 14.4065 8.91736 16.4647 10.1462 16.4091C11.4863 16.3535 12.1553 15.5899 12.3147 14.5029Z" fill="white"/>
<path id="Vector_2" d="M17.8577 12.254C15.6284 12.1996 14.1012 10.408 14.3008 8.08085C14.6451 3.9871 19.8082 -0.380099 23.824 0.0249645C28.5375 0.502645 32.9686 5.16485 32.6944 9.36866C32.6634 9.8418 32.8034 10.6417 32.092 10.5146C31.2017 10.3569 30.3044 10.0438 30.0531 8.84786C29.4106 5.78436 27.4497 3.89066 24.3438 3.1747C23.8354 3.05363 23.3144 2.99193 22.7914 2.99089C20.3349 3.00564 19.9884 3.53211 20.9923 5.65047C22.6675 9.20074 21.1828 12.3357 17.8577 12.254ZM20.2465 8.15914C19.6958 7.13797 19.4583 5.07862 17.8956 5.2091C16.5612 5.32256 15.8119 7.21513 15.7901 8.70263C15.7729 9.91555 16.6185 10.7801 17.9885 10.745C19.4606 10.7143 20.1605 9.85996 20.2465 8.15914Z" fill="white"/>
<path id="Vector_3" d="M10.1691 28.7027C2.35551 28.7696 -2.20072 21.5148 1.07159 15.4899C1.45482 14.783 1.7233 13.3749 2.881 13.9207C3.7771 14.3416 4.01346 15.4377 3.43633 16.5939C2.30961 18.8507 2.69972 21.0961 3.97101 23.2054C4.6514 24.3332 5.6347 25.1683 6.81649 25.7867C8.01665 26.4141 8.71081 26.354 8.81292 24.7587C8.8767 23.55 9.29978 22.3869 10.0291 21.4149C11.3406 19.7005 13.6755 19.3147 15.3507 20.5424C17.105 21.828 17.4297 23.9985 16.0138 25.7424C14.3226 27.8268 11.9969 28.663 10.1691 28.7027ZM12.9022 21.3367C10.8002 21.7031 10.6981 23.3586 10.69 25.0242C10.69 25.7356 10.5455 26.8022 11.8305 26.4164C13.4827 25.9206 15.3874 25.4452 15.3415 23.2519C15.3151 21.9993 14.318 21.3514 12.9022 21.3367Z" fill="white"/>
<path id="Vector_4" d="M10.0935 30.2312C11.3832 29.4483 12.3722 29.7512 13.562 30.6703C16.5452 32.9759 20.4279 32.6809 23.1219 30.1937C24.1787 29.2191 24.7776 28.4317 22.803 27.819C22.079 27.592 21.3974 27.1121 20.8123 26.6151C19.4687 25.4737 18.7195 24.0747 19.4056 22.2876C19.9793 20.7888 21.0635 19.9197 22.7479 19.8448C24.6984 19.7585 25.8125 20.8126 26.556 22.4261C28.3115 26.2327 26.7786 31.0958 23.0531 33.5137C19.3494 35.918 14.3571 35.3575 11.3327 32.1691C10.8186 31.6268 10.1727 31.1264 10.0935 30.2312ZM25.4362 24.5966C25.1952 23.1295 25.0679 21.4503 22.9464 21.3629C21.511 21.305 20.5794 22.1571 20.7251 23.5981C20.9282 25.6121 22.6986 26.0943 24.2968 26.4211C25.7907 26.7343 25.2285 25.3965 25.4362 24.5966Z" fill="white"/>
<path id="Vector_5" d="M28.5007 28.5394C28.2483 26.9691 28.7371 26.083 30.005 25.249C33.1453 23.1851 34.0598 19.4351 32.473 16.198C31.8396 14.9034 31.2579 14.0683 30.0382 15.7964C29.5667 16.4658 28.7578 16.9594 28.0108 17.3747C26.5261 18.1973 25.0013 18.2234 23.6164 17.1262C22.4288 16.1856 21.9538 14.9193 22.3026 13.4613C22.7054 11.7786 23.909 10.905 25.6059 10.593C31.8373 9.45038 37.5443 16.0006 35.6191 22.1526C34.5417 25.5849 32.2228 27.7554 28.5007 28.5394ZM26.6443 12.1485C24.8934 12.0612 23.8286 12.6024 23.7759 14.2465C23.7311 15.5649 24.4551 16.3943 25.8182 16.4023C27.7882 16.4136 29.1215 14.9715 29.3016 13.4806C29.4622 12.0975 27.5048 12.4265 26.6443 12.1485Z" fill="white"/>
</g>
<defs>
<clipPath id="clip0_2819_20679">
<rect width="36" height="35" fill="white"/>
</clipPath>
</defs>
</svg>
