<svg width="24" height="24" viewBox="0 0 24 24" fill="none" xmlns="http://www.w3.org/2000/svg">
<circle cx="12" cy="12" r="12" fill="#E74C3C"/>
<g clip-path="url(#clip0)">
<path d="M12 3C10.111 3.00218 8.3 3.75355 6.96428 5.08928C5.62855 6.425 4.87718 8.236 4.875 10.125C4.875 15.0352 9.7785 19.491 11.2808 20.7397C11.4827 20.9075 11.737 20.9994 11.9996 20.9994C12.2622 20.9994 12.5165 20.9075 12.7185 20.7397C14.2185 19.491 19.125 15.0337 19.125 10.1242C19.1226 8.23538 18.3712 6.42457 17.0355 5.08901C15.6998 3.75345 13.8889 3.00218 12 3V3ZM12 13.875C11.2583 13.875 10.5333 13.6551 9.91661 13.243C9.29993 12.831 8.81928 12.2453 8.53545 11.5601C8.25162 10.8748 8.17736 10.1208 8.32206 9.39341C8.46675 8.66598 8.8239 7.9978 9.34835 7.47335C9.8728 6.9489 10.541 6.59175 11.2684 6.44706C11.9958 6.30236 12.7498 6.37662 13.4351 6.66045C14.1203 6.94428 14.706 7.42493 15.118 8.04161C15.5301 8.6583 15.75 9.38332 15.75 10.125C15.75 10.6175 15.653 11.1051 15.4645 11.5601C15.2761 12.015 14.9999 12.4284 14.6517 12.7767C14.3034 13.1249 13.89 13.4011 13.4351 13.5895C12.9801 13.778 12.4925 13.875 12 13.875Z" fill="white"/>
</g>
<defs>
<clipPath id="clip0">
<rect width="18" height="18" fill="white" transform="translate(3 3)"/>
</clipPath>
</defs>
</svg>
