<?xml version="1.0" standalone="no"?>
<!DOCTYPE svg PUBLIC "-//W3C//DTD SVG 1.1//EN" "http://www.w3.org/Graphics/SVG/1.1/DTD/svg11.dtd" >
<svg xmlns="http://www.w3.org/2000/svg">
<metadata>Generated by IcoMoon</metadata>
<defs>
<font id="icomoon" horiz-adv-x="1024">
<font-face units-per-em="1024" ascent="960" descent="-64" />
<missing-glyph horiz-adv-x="1024" />
<glyph unicode="&#x20;" horiz-adv-x="512" d="" />
<glyph unicode="&#xe900;" glyph-name="size" d="M896 738.826l-0.333-253.233h-93.174v187.013l-170.952-170.952-65.887 65.887 170.952 170.952h-187.013v93.174l346.406 0.333v-93.174zM128 157.174l0.333 253.233h93.174v-187.013l170.952 170.952 65.887-65.887-170.952-170.952h187.013v-93.174l-346.406-0.333v93.174z" />
<glyph unicode="&#xe901;" glyph-name="Toggle-Left" d="M768 704h-512c-141.312 0-256-114.688-256-256s114.688-256 256-256h512c141.312 0 256 114.688 256 256s-114.688 256-256 256zM256 277.333c-94.436 0-170.667 76.231-170.667 170.667s76.231 170.667 170.667 170.667c94.436 0 170.667-76.231 170.667-170.667s-76.231-170.667-170.667-170.667z" />
<glyph unicode="&#xe902;" glyph-name="Toggle-Right" d="M256 192h512c141.312 0 256 114.688 256 256s-114.688 256-256 256h-512c-141.312 0-256-114.688-256-256s114.688-256 256-256zM768 618.667c94.436 0 170.667-76.231 170.667-170.667s-76.231-170.667-170.667-170.667c-94.436 0-170.667 76.231-170.667 170.667s76.231 170.667 170.667 170.667z" />
<glyph unicode="&#xe903;" glyph-name="Checked-Disabled" d="M938.667 448c0-235.641-191.025-426.667-426.667-426.667s-426.667 191.025-426.667 426.667c0 235.641 191.025 426.667 426.667 426.667s426.667-191.025 426.667-426.667zM512 618.667c-94.208 0-170.667-76.459-170.667-170.667s76.459-170.667 170.667-170.667c94.208 0 170.667 76.459 170.667 170.667s-76.459 170.667-170.667 170.667z" />
<glyph unicode="&#xe904;" glyph-name="hour-front-desk_ic" d="M538.027 874.667c-183.927-0.7-338.389-126.026-383.375-295.889l-0.625-2.777 59.307-13.227c38.676 146.657 170.127 253.038 326.425 253.038 186.157 0 337.067-150.91 337.067-337.067 0-156.298-106.381-287.749-250.688-325.897l-2.351-0.528 16.213-58.88c168.821 48.642 290.224 201.738 290.224 383.19 0 217.785-174.888 394.722-391.885 398.033l-0.311 0.004zM666.027 645.12l-96-160v-69.973h121.173v-61.013h61.44v63.147h30.293v61.44h-30.293v61.013h-61.44v-61.013h-56.32l82.773 137.387zM416.853 629.76c-0.137 0.001-0.3 0.001-0.462 0.001-50.234 0-91.125-40.006-92.548-89.896l-0.003-0.131h60.16c-0.008 0.258-0.013 0.561-0.013 0.866 0 16.495 13.372 29.867 29.867 29.867 0.304 0 0.608-0.005 0.91-0.014l-0.044 0.001h30.72c0.258 0.008 0.561 0.013 0.866 0.013 16.495 0 29.867-13.372 29.867-29.867 0-0.304-0.005-0.608-0.014-0.91l0.001 0.044c0.002-0.131 0.003-0.285 0.003-0.439 0-16.495-13.372-29.867-29.867-29.867-0.301 0-0.601 0.004-0.9 0.013l0.044-0.001h-29.867c-50.618-0.481-91.495-41.507-91.733-92.137v-61.036h213.333v61.013h-153.173c-0.009 0.269-0.014 0.585-0.014 0.903 0 16.495 13.372 29.867 29.867 29.867 0.605 0 1.206-0.018 1.802-0.053l-0.082 0.004h30.72c48.129 3.38 85.893 43.253 85.893 91.947s-37.764 88.567-85.601 91.93l-0.292 0.016zM78.933 478.72v-30.72c0-0.002 0-0.003 0-0.005 0-236.070 190.766-427.584 426.552-428.794h30.835v141.653l-157.44 79.36-85.333-85.333c-30.186 22.64-55.982 48.979-77.347 78.714l-0.733 1.072 85.333 85.333-80.64 158.72z" />
<glyph unicode="&#xe905;" glyph-name="Checked" d="M938.667 448c0-235.641-191.025-426.667-426.667-426.667s-426.667 191.025-426.667 426.667c0 235.641 191.025 426.667 426.667 426.667s426.667-191.025 426.667-426.667zM512 618.667c-94.208 0-170.667-76.459-170.667-170.667s76.459-170.667 170.667-170.667c94.208 0 170.667 76.459 170.667 170.667s-76.459 170.667-170.667 170.667zM512 618.667c-94.208 0-170.667-76.459-170.667-170.667s76.459-170.667 170.667-170.667c94.208 0 170.667 76.459 170.667 170.667s-76.459 170.667-170.667 170.667z" />
<glyph unicode="&#xe906;" glyph-name="hour-security_ic" d="M512 869.12l-344.747-153.173v-229.547c-0.002-0.455-0.002-0.993-0.002-1.531 0-216.246 144.022-398.853 341.378-457.135l3.371-0.854c200.727 59.136 344.749 241.743 344.749 457.989 0 0.538-0.001 1.077-0.003 1.615v-0.083 229.547zM435.2 256.427l-153.173 153.173 54.187 54.187 98.987-101.12 252.587 256 54.187-54.613z" />
<glyph unicode="&#xe907;" glyph-name="Accessible-by-elevator_ic" d="M524.373 874.667h-357.547c-40.111-0.242-72.533-32.814-72.533-72.959 0 0 0-0.001 0-0.001v0-706.133c-0.007-0.381-0.011-0.831-0.011-1.281 0-40.149 32.429-72.723 72.522-72.959h357.57c0.003 0 0.007 0 0.011 0 40.295 0 72.96 32.665 72.96 72.96 0 0.45-0.004 0.899-0.012 1.347l0.001-0.067v704.853c0.013 0.509 0.020 1.107 0.020 1.708 0 40.059-32.474 72.533-72.533 72.533-0.157 0-0.314 0-0.471-0.001h0.024zM346.027 760.32c35.111 0 63.573-28.463 63.573-63.573s-28.463-63.573-63.573-63.573c-35.111 0-63.573 28.463-63.573 63.573v0c0 35.111 28.463 63.573 63.573 63.573v0zM443.733 397.227l-33.28-12.373c-4.092-1.534-7.002-5.304-7.252-9.784l-0.001-0.029-17.067-219.733c-0.916-11.969-10.853-21.333-22.977-21.333-0.022 0-0.045 0-0.067 0h-36.69c-12.172 0.152-22.142 9.383-23.457 21.226l-0.010 0.108-15.36 219.733c-0.376 4.35-3.032 8.001-6.755 9.782l-0.072 0.031-32.427 12.373c-8.62 3.463-14.596 11.752-14.596 21.437 0 0.715 0.033 1.422 0.096 2.119l-0.007-0.090 13.653 128c2.727 35.443 31.984 63.216 67.804 63.573h60.196c35.42-0.25 64.492-27.103 68.24-61.56l0.027-0.307 14.080-128c0.080-0.754 0.126-1.629 0.126-2.515 0-9.913-5.73-18.488-14.058-22.593l-0.148-0.066zM700.587 477.867h207.36c0.142-0.003 0.309-0.005 0.477-0.005 11.546 0 20.907 9.36 20.907 20.907 0 4.292-1.293 8.282-3.512 11.601l0.048-0.076-103.253 170.667c-3.926 6.087-10.672 10.060-18.347 10.060s-14.421-3.973-18.295-9.974l-103.305-170.753c-1.954-3.161-3.112-6.993-3.112-11.095 0-11.676 9.38-21.162 21.016-21.331h0.016zM907.947 417.28h-207.36c-0.142 0.003-0.309 0.005-0.477 0.005-11.546 0-20.907-9.36-20.907-20.907 0-4.292 1.293-8.282 3.512-11.601l-0.048 0.076 104.107-170.667c3.926-6.087 10.672-10.060 18.347-10.060s14.421 3.973 18.295 9.974l0.052 0.086 104.107 170.667c1.578 2.972 2.504 6.498 2.504 10.24 0 12.234-9.902 22.155-22.128 22.187h-0.003z" />
<glyph unicode="&#xe908;" glyph-name="Uncheck-Disabled" d="M938.667 448c0-235.641-191.025-426.667-426.667-426.667s-426.667 191.025-426.667 426.667c0 235.641 191.025 426.667 426.667 426.667s426.667-191.025 426.667-426.667z" />
<glyph unicode="&#xe909;" glyph-name="Uncheck" d="M512 64c212.077 0 384 171.923 384 384s-171.923 384-384 384c-212.077 0-384-171.923-384-384s171.923-384 384-384zM512 21.333c-235.641 0-426.667 191.025-426.667 426.667s191.025 426.667 426.667 426.667c235.641 0 426.667-191.025 426.667-426.667s-191.025-426.667-426.667-426.667z" />
<glyph unicode="&#xe90a;" glyph-name="Checked-Disabled1" d="M810.667 64h-597.333c-47.128 0-85.333 38.205-85.333 85.333v597.333c0 47.128 38.205 85.333 85.333 85.333h597.333c47.128 0 85.333-38.205 85.333-85.333v-597.333c0-47.128-38.205-85.333-85.333-85.333zM410.404 330.823l-86.423 86.423c-21.836 21.836-21.836 57.238 0 79.074v0c21.844 21.844 57.254 21.869 79.129 0.055l67.634-67.446 150.127 150.127c21.836 21.836 57.238 21.836 79.074 0 0.025-0.025 0.050-0.050 0.074-0.075v0c21.848-21.93 21.814-57.409-0.075-79.298l-168.86-168.86c-33.325-33.325-87.355-33.325-120.68 0z" />
<glyph unicode="&#xe90b;" glyph-name="Accessible-parking_ic" d="M597.333 789.333c0-47.128-38.205-85.333-85.333-85.333s-85.333 38.205-85.333 85.333c0 47.128 38.205 85.333 85.333 85.333s85.333-38.205 85.333-85.333zM810.667 405.333v85.333c-68.792 0.959-130.431 30.791-173.488 77.896l-55.206 61.197c-7.545 8.022-16.623 14.504-26.78 18.992l-0.526 0.208c-12.698 7.907-28.112 12.595-44.62 12.595-2.165 0-4.312-0.081-6.436-0.239l0.283 0.017c-43.558-4.224-77.331-40.647-77.331-84.957 0-1.483 0.038-2.957 0.113-4.421l-0.008 0.205v-252.16c0-47.128 38.205-85.333 85.333-85.333v0h213.333v-213.333h85.333v234.667c0 47.128-38.205 85.333-85.333 85.333v0h-128v147.2c57.78-48.139 131.599-78.834 212.42-83.161l0.913-0.039zM547.413 192c-18.132-50.085-65.283-85.229-120.643-85.229-70.692 0-128 57.308-128 128 0 55.36 35.144 102.511 84.339 120.36l0.891 0.282v88.32c-98.045-20.565-170.612-106.314-170.612-209.012 0-117.821 95.513-213.333 213.333-213.333 102.698 0 188.447 72.567 208.767 169.222l0.244 1.39z" />
<glyph unicode="&#xe90c;" glyph-name="Checked1" d="M810.667 64h-597.333c-47.128 0-85.333 38.205-85.333 85.333v597.333c0 47.128 38.205 85.333 85.333 85.333h597.333c47.128 0 85.333-38.205 85.333-85.333v-597.333c0-47.128-38.205-85.333-85.333-85.333zM410.404 330.823l-86.423 86.423c-21.836 21.836-21.836 57.238 0 79.074v0c21.844 21.844 57.254 21.869 79.129 0.055l67.634-67.446 150.127 150.127c21.836 21.836 57.238 21.836 79.074 0 0.025-0.025 0.050-0.050 0.074-0.075v0c21.848-21.93 21.814-57.409-0.075-79.298l-168.86-168.86c-33.325-33.325-87.355-33.325-120.68 0z" />
<glyph unicode="&#xe90d;" glyph-name="Adapted-bath_ic" d="M248.32 780.373h250.453v-47.36h-17.92c-0.381 0.005-0.83 0.009-1.28 0.009-52.784 0-95.573-42.79-95.573-95.573 0-0.003 0-0.006 0-0.009v0-85.333h298.667v85.333c0 0.001 0 0.002 0 0.004 0 52.484-42.305 95.087-94.674 95.569h-17.966v119.040h-393.387v-736.427h-85.333v-71.68h839.68v71.68h-682.667zM612.267 637.44v-11.52h-155.733v11.52c0.24 13.247 11.035 23.893 24.316 23.893 0.001 0 0.003 0 0.004 0h107.093c13.059-0.473 23.467-11.174 23.467-24.305 0-0.005 0-0.011 0-0.016v0.001zM498.773 532.907h71.68v-118.187h-71.68v118.187zM605.867 532.907h71.68v-118.187h-71.68v118.187zM390.4 532.907h71.68v-118.187h-71.68v118.187zM498.773 372.053h71.68v-118.187h-71.68v118.187zM605.867 372.053h71.68v-118.187h-71.68v118.187zM390.4 372.053h71.68v-118.187h-71.68v118.187z" />
<glyph unicode="&#xe90e;" glyph-name="Nature" d="M810.667 64h-597.333c-47.128 0-85.333 38.205-85.333 85.333v597.333c0 47.128 38.205 85.333 85.333 85.333h597.333c47.128 0 85.333-38.205 85.333-85.333v-597.333c0-47.128-38.205-85.333-85.333-85.333zM298.667 533.333h426.667v-128h-426.667v128z" />
<glyph unicode="&#xe90f;" glyph-name="Adapter_ic" d="M748.8 258.56l-189.44 189.44v150.613c55.655 20.094 94.72 72.462 94.72 133.954 0 78.469-63.611 142.080-142.080 142.080s-142.080-63.611-142.080-142.080c0-61.492 39.065-113.86 93.731-133.642l0.989-0.313v-150.613l-189.44-189.44h-189.867v-237.227h237.227v144.64l189.44 199.253 189.44-199.253v-144.64h237.227v237.227z" />
<glyph unicode="&#xe910;" glyph-name="Uncheck-Disabled1" d="M810.667 64h-597.333c-47.128 0-85.333 38.205-85.333 85.333v597.333c0 47.128 38.205 85.333 85.333 85.333h597.333c47.128 0 85.333-38.205 85.333-85.333v-597.333c0-47.128-38.205-85.333-85.333-85.333z" />
<glyph unicode="&#xe911;" glyph-name="Uncheck1" d="M810.667 106.667c23.564 0 42.667 19.103 42.667 42.667v597.333c0 23.564-19.103 42.667-42.667 42.667h-597.333c-23.564 0-42.667-19.103-42.667-42.667v-597.333c0-23.564 19.103-42.667 42.667-42.667h597.333zM810.667 64h-597.333c-47.128 0-85.333 38.205-85.333 85.333v597.333c0 47.128 38.205 85.333 85.333 85.333h597.333c47.128 0 85.333-38.205 85.333-85.333v-597.333c0-47.128-38.205-85.333-85.333-85.333z" />
<glyph unicode="&#xe912;" glyph-name="facebook" d="M864.008 832h-703.992c-17.688 0-32.016-14.328-32.016-31.992v-704.016c0-17.664 14.328-31.992 32.016-31.992h375.984v288h-96v120h96v96c0 99.192 62.808 148.008 151.296 148.008 42.384 0 78.816-3.168 89.424-4.56v-103.68l-61.368-0.024c-48.12 0-59.352-22.872-59.352-56.424v-79.32h120l-24-120h-96l1.92-288h206.088c17.664 0 31.992 14.328 31.992 31.992v704.016c0 17.664-14.328 31.992-31.992 31.992z" />
<glyph unicode="&#xe913;" glyph-name="google-plus" d="M353.048 509.96c31.24 1.115 57.26 11.939 78.087 32.473 10.032 14.52 16.486 29.451 19.36 44.734 1.701 15.283 2.581 28.16 2.581 38.603 0 45.145-11.968 90.671-35.905 136.549-11.206 22-25.96 39.923-44.294 53.71-18.686 13.054-40.187 19.947-64.505 20.71-32.15-0.763-58.902-13.259-80.199-37.489-17.982-25.374-26.576-53.74-25.784-85.039 0-41.419 12.555-84.511 37.665-129.274 12.144-20.886 27.838-38.603 47.081-53.153 19.214-14.55 41.185-21.824 65.913-21.824zM518.461 174.381c0 29.040-9.827 54.356-29.451 75.945-20.798 20.504-53.27 45.614-97.476 75.417-7.539 0.733-16.427 1.115-26.635 1.115-6.043 0.733-21.531 0-46.465-2.229-24.552-3.373-49.662-8.771-75.359-16.192-6.043-2.259-14.55-5.603-25.491-10.061-10.971-4.84-22.088-11.734-33.441-20.68-10.942-9.299-20.211-20.827-27.75-34.614-8.712-14.52-13.054-32.032-13.054-52.507 0-40.217 18.891-73.334 56.673-99.412 35.875-26.078 85.009-39.483 147.314-40.217 55.94 0.733 98.62 12.643 128.071 35.729 28.718 22.734 43.062 51.95 43.062 87.708zM472.641 833.394c7.451-4.488 15.811-11 25.139-19.566 8.947-8.917 17.688-19.918 26.283-32.942 8.184-12.291 15.43-26.782 21.766-43.561 5.221-16.75 7.832-36.286 7.832-58.609-0.704-40.979-10.061-73.716-28.102-98.298-8.829-11.91-18.216-22.88-28.102-32.942-10.971-10.061-22.616-20.299-34.995-30.712-7.069-7.069-13.611-15.078-19.624-24.024-7.069-9.299-10.589-20.094-10.589-32.385 0-11.91 3.608-21.766 10.883-29.598 6.131-7.451 12.144-13.963 17.952-19.536l40.246-31.827c24.992-19.742 46.934-41.507 65.796-65.326 17.776-24.2 27.016-55.852 27.75-94.953 0-55.441-25.403-104.604-76.151-147.402-52.654-44.294-128.629-67.204-227.894-68.7-83.103 0.763-145.144 17.835-186.123 51.275-41.361 31.24-62.041 68.582-62.041 112.055 0 21.179 6.717 44.763 20.182 70.782 13.054 26.019 36.697 48.87 70.9 68.553 38.427 21.179 78.791 35.289 121.090 42.358 41.889 5.955 76.649 9.269 104.34 10.032-8.565 10.854-16.192 22.47-22.88 34.819-7.803 11.968-11.704 26.371-11.704 43.238 0 10.091 1.496 18.51 4.459 25.256 2.611 7.099 5.016 13.67 7.245 19.624-13.464-1.467-26.166-2.229-38.105-2.229-63.156 0.763-111.292 19.918-144.41 57.524-34.673 34.995-51.979 75.74-51.979 122.263 0 56.204 24.552 107.215 73.657 153.005 33.734 26.782 68.758 44.294 105.132 52.478 35.993 7.069 69.726 10.619 101.202 10.619h237.281l-73.276-41.273h-73.158zM981.333 468.171v-58.668h-117.335v-117.335h-58.668v117.335h-117.335v58.668h117.335v117.335h58.668v-117.335h117.335z" />
<glyph unicode="&#xe914;" glyph-name="twitter" d="M925.377 708.532c-30.898-13.703-64.132-22.97-98.994-27.144 35.597 21.342 62.925 55.102 75.788 95.345-33.287-19.741-70.196-34.074-109.442-41.818-31.449 33.497-76.234 54.419-125.797 54.419-95.187 0-172.34-77.153-172.34-172.34 0-13.493 1.523-26.645 4.463-39.272-143.254 7.193-270.232 75.814-355.233 180.084-14.832-25.464-23.337-55.075-23.337-86.656 0-59.774 30.425-112.54 76.654-143.437-28.246 0.893-54.813 8.637-78.045 21.552-0.026-0.735-0.026-1.444-0.026-2.179 0-83.506 59.407-153.15 138.266-168.98-14.465-3.938-29.69-6.038-45.415-6.038-11.104 0-21.894 1.076-32.42 3.071 21.92-68.464 85.579-118.289 161-119.68-58.987-46.229-133.304-73.766-214.054-73.766-13.913 0-27.616 0.814-41.11 2.389 76.26-48.88 166.854-77.415 264.194-77.415 317.011 0 490.349 262.619 490.349 490.349 0 7.482-0.158 14.911-0.499 22.314 33.68 24.283 62.898 54.629 85.999 89.202z" />
<glyph unicode="&#xe915;" glyph-name="youtube" d="M423.893 335.893l-0.027 239.76 230.56-120.293-230.533-119.467zM930.133 617.2c0 0-8.347 58.8-33.92 84.693-32.453 34-68.827 34.16-85.493 36.133-119.413 8.64-298.533 8.64-298.533 8.64h-0.373c0 0-179.12 0-298.533-8.64-16.693-1.973-53.040-2.133-85.52-36.133-25.573-25.893-33.893-84.693-33.893-84.693s-8.533-69.067-8.533-138.107v-64.747c0-69.067 8.533-138.107 8.533-138.107s8.32-58.8 33.893-84.693c32.48-34 75.12-32.933 94.107-36.48 68.267-6.56 290.133-8.587 290.133-8.587s179.307 0.267 298.72 8.907c16.667 2 53.040 2.16 85.493 36.16 25.573 25.893 33.92 84.693 33.92 84.693s8.533 69.040 8.533 138.107v64.747c0 69.040-8.533 138.107-8.533 138.107v0z" />
<glyph unicode="&#xe916;" glyph-name="BE" d="M42.667 106.667h938.667c23.564 0 42.667 19.103 42.667 42.667v597.333c0 23.564-19.103 42.667-42.667 42.667h-938.667c-23.564 0-42.667-19.103-42.667-42.667v-597.333c0-23.564 19.103-42.667 42.667-42.667zM341.333 106.667h341.333v682.667h-341.333zM42.667 106.667h298.667v682.667h-298.667c-23.564 0-42.667-19.103-42.667-42.667v-597.333c0-23.564 19.103-42.667 42.667-42.667z" />
<glyph unicode="&#xe917;" glyph-name="Additional-bathroom_ic" d="M248.32 759.040h250.453v-47.36h-17.92c-0.381 0.005-0.831 0.009-1.281 0.009-52.784 0-95.573-42.79-95.573-95.573 0-0.153 0-0.306 0.001-0.459v0.024-82.347h298.667v82.347c0 0.003 0 0.006 0 0.009 0 52.569-42.254 95.27-94.652 95.991l-0.068 0.001h-17.92v120.32h-393.387v-738.133h-85.333v-72.533h839.68v72.533h-682.667zM612.267 615.68v-11.52h-155.733v11.52c-0.002 0.128-0.004 0.279-0.004 0.431 0 13.196 10.697 23.893 23.893 23.893 0.151 0 0.302-0.001 0.453-0.004h107.070c13.059-0.473 23.467-11.174 23.467-24.305 0-0.005 0-0.011 0-0.016v0.001zM498.773 511.147h71.68v-118.187h-71.68v118.187zM605.867 511.147h71.68v-118.187h-71.68v118.187zM390.4 511.147h71.68v-118.187h-71.68v118.187zM498.773 350.293h71.68v-118.187h-71.68v118.187zM605.867 350.293h71.68v-118.187h-71.68v118.187zM390.4 350.293h71.68v-118.187h-71.68v118.187z" />
<glyph unicode="&#xe918;" glyph-name="Adults-only_ic" d="M512 789.333c188.513 0 341.333-152.82 341.333-341.333s-152.82-341.333-341.333-341.333c-188.513 0-341.333 152.82-341.333 341.333v0c0 188.513 152.82 341.333 341.333 341.333v0zM512 874.667c-235.641 0-426.667-191.025-426.667-426.667s191.025-426.667 426.667-426.667c235.641 0 426.667 191.025 426.667 426.667v0c0 235.641-191.025 426.667-426.667 426.667v0zM384 332.373h-136.96v52.053h32.427v102.827c-6.767-1.366-14.546-2.147-22.507-2.147-0.637 0-1.274 0.005-1.909 0.015l0.096-0.001h-8.107v50.773h4.267c0.127-0.001 0.277-0.001 0.427-0.001 14.087 0 27.439 3.146 39.392 8.774l-0.565-0.239c10.883 4.299 19.96 11.181 26.775 19.914l0.105 0.139h34.133v-179.627h32.427zM636.587 507.733l-56.747-5.12c-4.092 10.822-14.367 18.378-26.406 18.378-0.467 0-0.931-0.011-1.392-0.034l0.065 0.003c-21.333 0-32.853-17.493-34.133-52.907 12.657 8.829 28.362 14.107 45.299 14.107 0.725 0 1.447-0.010 2.167-0.029l-0.106 0.002c0.359 0.006 0.782 0.010 1.206 0.010 19.543 0 37.302-7.639 50.454-20.095l-0.034 0.032c13.177-12.473 21.377-30.086 21.377-49.615 0-0.857-0.016-1.711-0.047-2.561l0.004 0.123c0.038-0.871 0.060-1.892 0.060-2.918 0-22.152-10.109-41.943-25.965-55.011l-0.122-0.098c-16.323-13.557-37.494-21.784-60.587-21.784-0.75 0-1.498 0.009-2.244 0.026l0.111-0.002c-0.344-0.004-0.749-0.007-1.155-0.007-28.947 0-54.98 12.479-73.011 32.351l-0.073 0.082c-18.383 21.13-29.588 48.927-29.588 79.342 0 2.107 0.054 4.202 0.16 6.283l-0.012-0.292c-0.171 2.436-0.269 5.278-0.269 8.143 0 29.325 10.237 56.26 27.332 77.424l-0.183-0.234c18.068 19.57 43.854 31.784 72.492 31.784 2.266 0 4.515-0.077 6.743-0.227l-0.302 0.016c1.314 0.061 2.854 0.096 4.402 0.096 19.345 0 37.421-5.432 52.786-14.854l-0.441 0.251c14.507-9.71 24.798-24.751 28.096-42.261l0.064-0.406zM517.12 427.093c0-34.133 9.813-51.627 29.867-51.627s23.467 10.24 23.467 29.867c0.029 0.559 0.046 1.215 0.046 1.874 0 7.894-2.409 15.225-6.531 21.299l0.085-0.133c-4.098 5.224-10.411 8.549-17.501 8.549-0.297 0-0.594-0.006-0.888-0.017l0.042 0.001c-10.776-0.428-20.631-4.042-28.739-9.919l0.153 0.105zM669.867 441.6v27.307h48.213v48.213h27.733v-48.213h48.213v-27.307h-48.213v-48.64h-27.733v48.64z" />
<glyph unicode="&#xe919;" glyph-name="CH" d="M42.667 106.667h938.667c23.564 0 42.667 19.103 42.667 42.667v597.331c0 23.564-19.103 42.667-42.667 42.667h-938.667c-23.564 0-42.667-19.103-42.667-42.667v-597.331c0-23.564 19.103-42.667 42.667-42.667zM298.667 384h426.667v128h-426.667zM448 234.667h128v426.667h-128z" />
<glyph unicode="&#xe91a;" glyph-name="Aerobics_ic" d="M436.48 715.093c0.126-0.001 0.276-0.001 0.426-0.001 43.829 0 79.36 35.531 79.36 79.36s-35.531 79.36-79.36 79.36c-43.829 0-79.36-35.531-79.36-79.36 0-0.15 0-0.299 0.001-0.449v0.023c0.241-43.497 35.437-78.693 78.91-78.933h0.023zM290.133 580.693l-110.507-559.36h82.773l71.253 316.587 83.2-77.653v-238.933h78.933v298.667l-82.773 78.507 23.467 118.613c53.308-60.649 130.98-98.781 217.563-98.987h0.037v79.36c-1.088-0.022-2.371-0.034-3.656-0.034-70.605 0-132.426 37.609-166.523 93.887l-0.488 0.867-39.68 63.573c-14.194 23.012-38.918 38.341-67.284 39.25l-0.129 0.003c-11.52 0-19.627-3.84-31.573-3.84l-205.653-85.333v-187.733h80.213v134.827l70.827 27.733zM779.093 356.267c0.126-0.001 0.275-0.002 0.424-0.002 21.208 0 38.4 17.192 38.4 38.4s-17.192 38.4-38.4 38.4c-21.208 0-38.4-17.192-38.4-38.4 0-0.149 0.001-0.298 0.003-0.447v0.023c0.238-20.876 17.098-37.735 37.951-37.973h0.023zM708.693 291.413l-53.333-270.080h40.107l34.133 152.747 40.107-38.4v-114.347h37.973v144.213l-40.107 38.4 11.52 57.173c25.707-29.269 63.173-47.677 104.941-47.787h0.019v37.973c-0.406-0.006-0.885-0.010-1.366-0.010-34.147 0-64.016 18.317-80.318 45.662l-0.237 0.428-19.2 30.293c-6.683 11.271-18.633 18.803-32.371 19.199l-0.056 0.001c-5.547 0-9.387-2.133-14.933-2.133l-99.413-42.667v-89.6h38.4v64.853l34.133 13.227z" />
<glyph unicode="&#xe91b;" glyph-name="Air-conditioning_1_ic" d="M938.667 490.667h-177.92l138.24 138.24-60.16 60.587-198.827-198.827h-85.333v85.333l198.827 198.827-60.587 60.16-138.24-138.24v177.92h-85.333v-177.92l-138.24 138.24-60.587-60.16 198.827-198.827v-85.333h-85.333l-198.827 198.827-60.16-60.587 138.24-138.24h-177.92v-85.333h177.92l-138.24-138.24 60.16-60.587 198.827 198.827h85.333v-85.333l-198.827-198.827 60.587-60.16 138.24 138.24v-177.92h85.333v177.92l138.24-138.24 60.587 60.16-198.827 198.827v85.333h85.333l198.827-198.827 60.16 60.587-138.24 138.24h177.92z" />
<glyph unicode="&#xe91c;" glyph-name="ENG" d="M981.342 789.342c23.552 0 42.667-19.115 42.667-42.667v-597.333c0-23.552-19.115-42.667-42.667-42.667h-938.667c-23.552 0-42.667 19.115-42.667 42.667v597.333c0 23.552 19.115 42.667 42.667 42.667h938.667zM0 684.288h1024v52.523h-1024v-52.523zM0 579.285h1024v52.523h-1024v-52.523zM0 474.24h1024v52.523h-1024v-52.523zM0 369.237h1024v52.48h-1024v-52.48zM0 264.192h1024v52.523h-1024v-52.523zM0 159.189h1024v52.523h-1024v-52.523zM42.675 789.342h476.16v-324.949c0-23.552-19.115-42.667-42.667-42.667h-476.16v324.949c0 23.552 19.115 42.667 42.667 42.667zM480.299 464.986l-4.693 14.507-4.736-14.507h-15.275l12.373-8.96-4.736-14.507 12.373 8.96 12.331-8.96-4.736 14.507 12.373 8.96h-15.275zM475.605 553.007l-4.736-14.507h-15.275l12.373-8.96-4.736-14.507 12.373 8.96 12.331-8.96-4.736 14.507 12.373 8.96h-15.275l-4.693 14.507zM475.605 626.564l-4.736-14.549h-15.275l12.373-8.96-4.736-14.507 12.373 8.96 12.331-8.96-4.736 14.507 12.373 8.96h-15.275l-4.693 14.549zM475.605 700.036l-4.736-14.507h-15.275l12.373-8.96-4.736-14.507 12.373 8.96 12.331-8.96-4.736 14.507 12.373 8.96h-15.275l-4.693 14.507zM463.232 735.578l12.373 8.96 12.331-8.96-4.736 14.507 12.373 9.003h-15.275l-4.693 14.464-4.736-14.464h-15.275l12.373-9.003-4.736-14.507zM437.077 501.764l-4.736 14.507-4.693-14.507h-15.275l12.373-9.003-4.736-14.507 12.331 8.96 12.373-8.96-4.736 14.507 12.373 9.003h-15.275zM432.341 589.786l-4.693-14.507h-15.275l12.373-8.96-4.736-14.549 12.331 9.003 12.373-9.003-4.736 14.549 12.373 8.96h-15.275l-4.736 14.507zM432.341 663.3l-4.693-14.507h-15.275l12.373-8.96-4.736-14.549 12.331 9.003 12.373-9.003-4.736 14.549 12.373 8.96h-15.275l-4.736 14.507zM432.341 736.815l-4.693-14.507h-15.275l12.373-8.96-4.736-14.549 12.331 9.003 12.373-9.003-4.736 14.549 12.373 8.96h-15.275l-4.736 14.507zM393.856 464.986l-4.736 14.507-4.736-14.507h-15.232l12.331-8.96-4.693-14.507 12.331 8.96 12.331-8.96-4.693 14.507 12.331 8.96h-15.232zM389.12 553.007l-4.736-14.507h-15.232l12.331-8.96-4.693-14.507 12.331 8.96 12.331-8.96-4.693 14.507 12.331 8.96h-15.232l-4.736 14.507zM389.12 773.551l-4.736-14.464h-15.232l12.331-9.003-4.693-14.507 12.331 8.96 12.331-8.96-4.693 14.507 12.331 9.003h-15.232l-4.736 14.464zM389.12 626.564l-4.736-14.549h-15.232l12.331-8.96-4.693-14.507 12.331 8.96 12.331-8.96-4.693 14.507 12.331 8.96h-15.232l-4.736 14.549zM389.12 700.036l-4.736-14.507h-15.232l12.331-8.96-4.693-14.507 12.331 8.96 12.331-8.96-4.693 14.507 12.331 8.96h-15.232l-4.736 14.507zM302.635 553.007l-4.693-14.507h-15.275l12.373-8.96-4.736-14.507 12.331 8.96 12.331-8.96-4.693 14.507 12.373 8.96h-15.275l-4.736 14.507zM302.635 626.564l-4.693-14.549h-15.275l12.373-8.96-4.736-14.507 12.331 8.96 12.331-8.96-4.693 14.507 12.373 8.96h-15.275l-4.736 14.549zM302.635 700.036l-4.693-14.507h-15.275l12.373-8.96-4.736-14.507 12.331 8.96 12.331-8.96-4.693 14.507 12.373 8.96h-15.275l-4.736 14.507zM345.899 589.786l-4.736-14.507h-15.275l12.373-8.96-4.736-14.549 12.373 9.003 12.331-9.003-4.736 14.549 12.373 8.96h-15.275l-4.693 14.507zM307.371 464.986l-4.736 14.507-4.693-14.507h-15.275l12.373-8.96-4.736-14.507 12.331 8.96 12.331-8.96-4.693 14.507 12.373 8.96h-15.275zM350.592 501.764l-4.693 14.507-4.736-14.507h-15.275l12.373-9.003-4.736-14.507 12.373 8.96 12.331-8.96-4.736 14.507 12.373 9.003h-15.275zM345.899 663.3l-4.736-14.507h-15.275l12.373-8.96-4.736-14.549 12.373 9.003 12.331-9.003-4.736 14.549 12.373 8.96h-15.275l-4.693 14.507zM302.635 773.551l-4.693-14.464h-15.275l12.373-9.003-4.736-14.507 12.331 8.96 12.331-8.96-4.693 14.507 12.373 9.003h-15.275l-4.736 14.464zM345.899 736.815l-4.736-14.507h-15.275l12.373-8.96-4.736-14.549 12.373 9.003 12.331-9.003-4.736 14.549 12.373 8.96h-15.275l-4.693 14.507zM259.413 589.786l-4.736-14.507h-15.232l12.331-8.96-4.693-14.549 12.331 9.003 12.331-9.003-4.693 14.549 12.331 8.96h-15.232l-4.736 14.507zM264.149 501.764l-4.736 14.507-4.736-14.507h-15.232l12.331-9.003-4.693-14.507 12.331 8.96 12.331-8.96-4.693 14.507 12.331 9.003h-15.232zM259.413 736.815l-4.736-14.507h-15.232l12.331-8.96-4.693-14.549 12.331 9.003 12.331-9.003-4.693 14.549 12.331 8.96h-15.232l-4.736 14.507zM259.413 663.3l-4.736-14.507h-15.232l12.331-8.96-4.693-14.549 12.331 9.003 12.331-9.003-4.693 14.549 12.331 8.96h-15.232l-4.736 14.507zM216.192 553.007l-4.736-14.507h-15.275l12.373-8.96-4.693-14.507 12.331 8.96 12.331-8.96-4.693 14.507 12.331 8.96h-15.275l-4.693 14.507zM220.885 464.986l-4.693 14.507-4.736-14.507h-15.275l12.373-8.96-4.693-14.507 12.331 8.96 12.331-8.96-4.693 14.507 12.331 8.96h-15.275zM216.192 700.036l-4.736-14.507h-15.275l12.373-8.96-4.693-14.507 12.331 8.96 12.331-8.96-4.693 14.507 12.331 8.96h-15.275l-4.693 14.507zM216.192 773.551l-4.736-14.464h-15.275l12.373-9.003-4.693-14.507 12.331 8.96 12.331-8.96-4.693 14.507 12.331 9.003h-15.275l-4.693 14.464zM216.192 626.564l-4.736-14.549h-15.275l12.373-8.96-4.693-14.507 12.331 8.96 12.331-8.96-4.693 14.507 12.331 8.96h-15.275l-4.693 14.549zM177.664 501.764l-4.736 14.507-4.693-14.507h-15.275l12.373-9.003-4.736-14.507 12.331 8.96 12.331-8.96-4.693 14.507 12.373 9.003h-15.275zM172.928 589.786l-4.693-14.507h-15.275l12.373-8.96-4.736-14.549 12.331 9.003 12.331-9.003-4.693 14.549 12.373 8.96h-15.275l-4.736 14.507zM172.928 736.815l-4.693-14.507h-15.275l12.373-8.96-4.736-14.549 12.331 9.003 12.331-9.003-4.693 14.549 12.373 8.96h-15.275l-4.736 14.507zM172.928 663.3l-4.693-14.507h-15.275l12.373-8.96-4.736-14.549 12.331 9.003 12.331-9.003-4.693 14.549 12.373 8.96h-15.275l-4.736 14.507zM129.707 553.007l-4.736-14.507h-15.232l12.331-8.96-4.693-14.507 12.331 8.96 12.331-8.96-4.693 14.507 12.331 8.96h-15.232l-4.736 14.507zM134.443 464.986l-4.736 14.507-4.736-14.507h-15.232l12.331-8.96-4.693-14.507 12.331 8.96 12.331-8.96-4.693 14.507 12.331 8.96h-15.232zM129.707 773.551l-4.736-14.464h-15.232l12.331-9.003-4.693-14.507 12.331 8.96 12.331-8.96-4.693 14.507 12.331 9.003h-15.232l-4.736 14.464zM129.707 626.564l-4.736-14.549h-15.232l12.331-8.96-4.693-14.507 12.331 8.96 12.331-8.96-4.693 14.507 12.331 8.96h-15.232l-4.736 14.549zM129.707 700.036l-4.736-14.507h-15.232l12.331-8.96-4.693-14.507 12.331 8.96 12.331-8.96-4.693 14.507 12.331 8.96h-15.232l-4.736 14.507zM86.485 589.786l-4.736-14.507h-15.275l12.373-8.96-4.736-14.549 12.373 9.003 12.331-9.003-4.693 14.549 12.331 8.96h-15.275l-4.693 14.507zM91.179 501.764l-4.693 14.507-4.736-14.507h-15.275l12.373-9.003-4.736-14.507 12.373 8.96 12.331-8.96-4.693 14.507 12.331 9.003h-15.275zM86.485 736.815l-4.736-14.507h-15.275l12.373-8.96-4.736-14.549 12.373 9.003 12.331-9.003-4.693 14.549 12.331 8.96h-15.275l-4.693 14.507zM86.485 663.3l-4.736-14.507h-15.275l12.373-8.96-4.736-14.549 12.373 9.003 12.331-9.003-4.693 14.549 12.331 8.96h-15.275l-4.693 14.507zM47.957 464.986l-4.736 14.507-4.693-14.507h-15.275l12.373-8.96-4.736-14.507 12.331 8.96 12.373-8.96-4.736 14.507 12.373 8.96h-15.275zM43.221 553.007l-4.693-14.507h-15.275l12.373-8.96-4.736-14.507 12.331 8.96 12.373-8.96-4.736 14.507 12.373 8.96h-15.275l-4.736 14.507zM43.221 700.036l-4.693-14.507h-15.275l12.373-8.96-4.736-14.507 12.331 8.96 12.373-8.96-4.736 14.507 12.373 8.96h-15.275l-4.736 14.507zM43.221 626.564l-4.693-14.549h-15.275l12.373-8.96-4.736-14.507 12.331 8.96 12.373-8.96-4.736 14.507 12.373 8.96h-15.275l-4.736 14.549zM43.221 773.551l-4.693-14.464h-15.275l12.373-9.003-4.736-14.507 12.331 8.96 12.373-8.96-4.736 14.507 12.373 9.003h-15.275l-4.736 14.464z" />
<glyph unicode="&#xe91d;" glyph-name="Air-conditioning_ic" d="M938.667 490.667h-177.92l138.24 138.24-60.16 60.587-198.827-198.827h-85.333v85.333l198.827 198.827-60.587 60.16-138.24-138.24v177.92h-85.333v-177.92l-138.24 138.24-60.587-60.16 198.827-198.827v-85.333h-85.333l-198.827 198.827-60.16-60.587 138.24-138.24h-177.92v-85.333h177.92l-138.24-138.24 60.16-60.587 198.827 198.827h85.333v-85.333l-198.827-198.827 60.587-60.16 138.24 138.24v-177.92h85.333v177.92l138.24-138.24 60.587 60.16-198.827 198.827v85.333h85.333l198.827-198.827 60.16 60.587-138.24 138.24h177.92z" />
<glyph unicode="&#xe91e;" glyph-name="Airport-shuttle_ic" d="M703.147 707.413h-544c-42.887 0-77.653-34.767-77.653-77.653v0-349.44h77.653c0-64.33 52.15-116.48 116.48-116.48s116.48 52.15 116.48 116.48v0h213.333c0-64.33 52.15-116.48 116.48-116.48s116.48 52.15 116.48 116.48v0h97.28v194.133zM159.147 474.453v155.307h155.307v-155.307zM275.627 221.867c-32.283 0-58.453 26.17-58.453 58.453s26.17 58.453 58.453 58.453c32.283 0 58.453-26.17 58.453-58.453v0c0.001-0.127 0.002-0.278 0.002-0.428 0-32.047-25.979-58.027-58.027-58.027-0.151 0-0.301 0.001-0.451 0.002h0.023zM547.84 474.453h-155.733v155.307h155.733zM722.347 221.867c-32.283 0-58.453 26.17-58.453 58.453s26.17 58.453 58.453 58.453c32.283 0 58.453-26.17 58.453-58.453v0c0.001-0.127 0.002-0.278 0.002-0.428 0-32.047-25.979-58.027-58.027-58.027-0.151 0-0.301 0.001-0.451 0.002h0.023zM625.493 474.453v155.307h38.827l155.307-155.307z" />
<glyph unicode="&#xe91f;" glyph-name="Alarm-clock_ic" d="M938.667 712.96l-196.267 164.693-55.040-65.28 196.267-164.693zM336.213 812.373l-54.613 65.28-196.267-164.267 55.040-65.28zM533.333 615.68h-64v-256l202.667-121.6 32 52.48-170.667 101.12zM512 786.347c-212.077 0-384-171.923-384-384s171.923-384 384-384c212.077 0 384 171.923 384 384v0c0 212.077-171.923 384-384 384v0zM512 103.68c-164.949 0-298.667 133.718-298.667 298.667s133.718 298.667 298.667 298.667c164.949 0 298.667-133.718 298.667-298.667v0c0-164.949-133.718-298.667-298.667-298.667v0z" />
<glyph unicode="&#xe920;" glyph-name="VI" d="M991.429 789.333c17.987 0 32.571-14.585 32.571-32.524v-617.618c0-17.988-14.584-32.524-32.571-32.524h-958.906c-17.938 0-32.523 14.536-32.523 32.524v617.618c0 17.939 14.584 32.524 32.523 32.524h958.906zM577.792 417.749l105.685 76.629h-130.645l-40.448 124.288-40.405-124.288h-130.645l105.685-76.629-40.405-124.117 105.771 76.715 105.728-76.715z" />
<glyph unicode="&#xe921;" glyph-name="Archery_ic" d="M512 784.64c0.507 0.003 1.106 0.004 1.706 0.004 185.45 0 335.787-150.337 335.787-335.787s-150.337-335.787-335.787-335.787c-185.148 0-335.298 149.848-335.785 334.883v0.046c0 0.129 0 0.281 0 0.433 0 184.936 149.314 334.997 333.965 336.206l0.115 0.001zM512 869.973c-231.843-0.97-419.412-189.139-419.412-421.117 0-232.578 188.542-421.12 421.12-421.12 232.277 0 420.631 188.054 421.119 420.216v0.047c0.001 0.254 0.001 0.555 0.001 0.857 0 232.578-188.542 421.12-421.12 421.12-0.6 0-1.2-0.001-1.8-0.004h0.093zM685.227 448.853c0-93.078-75.455-168.533-168.533-168.533s-168.533 75.455-168.533 168.533c0 93.078 75.455 168.533 168.533 168.533s168.533-75.455 168.533-168.533zM516.693 533.333c0.635 0.017 1.383 0.027 2.133 0.027 47.128 0 85.333-38.205 85.333-85.333s-38.205-85.333-85.333-85.333c-47.119 0-85.318 38.19-85.333 85.305v0.001c0 0.008 0 0.017 0 0.027 0 46.378 36.999 84.115 83.090 85.304l0.11 0.002zM516.693 618.667c-0.761 0.012-1.66 0.019-2.56 0.019-94.257 0-170.667-76.41-170.667-170.667s76.41-170.667 170.667-170.667c94.25 0 170.656 76.399 170.667 170.646v0.001c0 0.006 0 0.012 0 0.019 0 93.357-74.958 169.206-167.971 170.646l-0.135 0.002z" />
<glyph unicode="&#xe922;" glyph-name="Female" d="M938.353 40.769c2.039-9.718-6.116-18.788-16.989-19.436h-776.061c-10.873 0-19.028 9.718-16.989 19.436 7.475 38.224 23.105 119.855 26.503 130.221 20.387 57.66 74.752 80.983 129.797 101.715 14.181 5.15 31.829 11.633 52.944 19.449v0c45.853 16.973 97.369 6.342 132.758-27.396l2.538-2.42c33.86-32.281 87.102-32.281 120.962 0l2.539 2.419c35.388 33.737 86.904 44.368 132.756 27.396 21.115-7.816 38.763-14.299 52.944-19.449 55.045-20.084 109.41-44.055 129.797-101.715 3.398-10.366 19.028-91.997 26.503-130.221zM783.315 438.074c-52.205-15.666-105.079-26.563-157.284-32.693-5.354-0.681-8.032 6.13-3.346 9.536 37.481 27.926 61.575 72.198 61.575 122.6v128.049l-22.087 6.13c-22.087 6.13-43.504 14.984-64.252 26.563l-14.724 8.173-14.724-8.854c-53.544-31.331-105.079-47.678-157.284-50.402l-28.78-2.043v-107.616c0-46.316 22.087-93.312 61.575-122.6 4.016-3.406 2.008-10.217-3.346-9.536-52.205 6.13-105.079 17.028-157.284 32.693-20.748 6.13-32.126 28.607-25.433 49.040l80.985 244.519c26.772 85.82 105.749 143.033 194.096 143.033 14.055 0 28.11-2.043 40.827-6.811s23.425-13.622 34.134-22.477c12.047 1.362 23.425 2.724 34.803-3.406 40.158-21.796 70.945-66.749 85-110.34l80.985-244.519c6.693-20.433-4.685-42.91-25.433-49.040z" />
<glyph unicode="&#xe923;" glyph-name="Male" d="M370.043 543.951c-24.018 53.58-38.799 109.007-36.952 160.739v24.018c5.543 62.818 42.494 109.007 103.464 131.178 25.866 9.238 53.58 14.781 83.141 14.781s57.275-5.543 83.141-14.781c60.97-22.171 97.921-68.36 103.464-131.178v-24.018c0-53.58-12.933-107.159-38.799-160.739-12.933-25.866-29.561-49.885-55.427-72.055-24.018-22.171-55.427-35.104-88.684-35.104h-5.543c-36.952 0-68.36 12.933-92.379 35.104-25.866 24.018-42.494 46.189-55.427 72.055zM868.889 283.689c44.342-33.256 42.494-75.751 40.647-77.598v-96.074c-1.848-16.628-5.543-27.714-9.238-36.952-14.781-38.799-49.885-51.732-73.903-51.732h-617.090c-24.018 0-57.275 14.781-73.903 53.58-3.695 11.085-5.543 22.171-7.39 33.256v101.617c0 1.848-1.848 44.342 42.494 77.598 12.933 9.238 29.561 18.476 48.037 24.018l129.33 48.037 40.647 9.238 11.085-1.848c12.933-3.695 22.171-11.085 31.409-22.171 1.848-1.848 3.695-5.543 5.543-7.39 24.018-33.256 49.885-68.36 73.903-103.464l9.238-14.781 72.055 101.617c1.848 1.848 1.848 3.695 3.695 5.543 3.695 5.543 9.238 12.933 16.628 20.323l3.695 3.695c25.866 18.476 53.58 14.781 79.446 5.543l125.635-48.037c18.476-5.543 35.104-14.781 48.037-24.018z" />
<glyph unicode="&#xe924;" glyph-name="VND" d="M204.985 277.333h-87.713l-117.272 341.333h81.946l78.822-260.908h4.326l77.38 260.908h78.101l-115.589-341.333zM432.697 277.333h-69.45v341.333h60.558l159.566-212.653h4.326v212.653h69.45v-341.333h-60.078l-160.047 213.599h-4.326v-213.599zM724.813 618.667h136.496c103.093 0 162.69-61.265 162.69-168.183 0-110.939-58.876-173.15-162.69-173.15h-136.496v341.333zM797.387 557.638v-219.277h52.388c64.163 0 100.21 38.793 100.21 110.939 0 69.071-37.248 108.337-100.21 108.337h-52.388z" />
<glyph unicode="&#xe925;" glyph-name="Account" d="M512 140.8c-106.667 0-200.96 54.613-256 137.387 1.28 84.907 170.667 131.413 256 131.413 84.907 0 254.72-46.507 256-131.413-55.040-82.773-149.333-137.387-256-137.387zM512 746.667c70.827 0 128-57.173 128-128s-57.173-128-128-128c-70.827 0-128 57.173-128 128s57.173 128 128 128zM512 874.667c-235.52 0-426.667-191.147-426.667-426.667 0-235.477 191.147-426.667 426.667-426.667s426.667 191.189 426.667 426.667c0 235.52-191.147 426.667-426.667 426.667z" />
<glyph unicode="&#xe926;" glyph-name="Arrow-Left" d="M273.067 499.2l132.654 132.306c16.523 16.48 43.271 16.462 59.773-0.039v0c16.495-16.495 16.495-43.238 0-59.733l-90.027-90.027h357.973c23.329 0 42.24-18.911 42.24-42.24v0c0-23.329-18.911-42.24-42.24-42.24h-357.973l90.027-90.027c16.495-16.495 16.495-43.238 0-59.733v0c-16.501-16.501-43.25-16.519-59.773-0.039l-192.387 192.039 59.733 59.733z" />
<glyph unicode="&#xe927;" glyph-name="Arrow-Right" d="M715.947 379.733l-132.654-132.306c-16.523-16.48-43.271-16.462-59.773 0.039v0c-16.495 16.495-16.495 43.238 0 59.733l90.027 90.027h-357.973c-23.329 0-42.24 18.911-42.24 42.24v0c0 23.329 18.911 42.24 42.24 42.24h357.973l-90.027 90.027c-16.495 16.495-16.495 43.238 0 59.733v0c16.501 16.501 43.25 16.519 59.773 0.039l192.387-192.039-59.733-59.733z" />
<glyph unicode="&#xe928;" glyph-name="Bell" d="M427.093 63.573c0-46.933 37.973-84.907 84.907-84.907s84.907 37.973 84.907 84.907h-169.813zM805.547 242.347v248.32c0 138.667-96 254.72-225.707 285.44v30.72c0 37.547-30.293 67.84-67.84 67.84s-67.84-30.293-67.84-67.84v-30.72c-129.707-30.72-225.707-146.773-225.707-285.44v-248.32l-90.453-90.453v-45.227h768v45.227l-90.453 90.453z" />
<glyph unicode="&#xe929;" glyph-name="best-price" d="M890.919 171.261c8.28-17.058 6.44-36.809-5.52-51.173-11.96-15.262-31.281-22.444-49.682-18.853l-79.123 14.364-38.641-69.129c-9.2-15.262-26.681-25.138-45.081-25.138h-1.84c-19.321 0.898-35.881 11.671-44.161 28.729l-86.483 178.657c-9.2-2.693-19.321-4.489-28.521-4.489s-18.401 1.796-27.601 4.489l-87.403-178.657c-8.28-17.058-24.841-27.831-44.161-28.729h-1.84c-18.401 0-34.961 8.978-44.161 25.138l-39.561 69.129-79.123-14.364c-19.321-2.693-37.721 3.591-49.682 18.853-11.040 14.364-13.8 34.115-5.52 51.173l112.244 231.625-1.84 19.751c-0.92 11.671-5.52 21.547-12.88 30.524l-24.841 28.729c-34.961 39.502-34.961 96.062 0 135.564l24.841 28.729c7.36 8.978 11.96 18.853 12.88 30.524l2.76 36.809c3.68 52.071 45.081 92.471 98.443 96.062l37.721 2.693c11.96 0.898 22.081 5.387 31.281 12.569l28.521 24.24c40.481 34.115 98.443 34.115 138.924 0l29.441-24.24c9.2-7.182 19.321-11.671 31.281-12.569l37.721-2.693c53.362-4.489 94.763-44.889 99.363-96.959l2.76-36.809c0.92-11.671 5.52-21.547 12.88-30.524l24.841-27.831c34.961-39.502 34.961-96.062 0-135.564l-24.841-28.729c-7.36-8.978-11.96-18.853-12.88-30.524l-1.84-19.751 111.324-231.625zM350.862 75.2l86.483 179.555-23.921 20.649c-9.2 7.182-19.321 11.671-31.281 12.569l-37.721 2.693c-31.281 1.796-58.882 17.955-76.362 40.4l-85.563-177.759 77.282 14.364c2.76 0.898 6.44 0.898 9.2 0.898 18.401 0 34.961-9.876 44.161-26.035l37.721-67.333zM764.875 166.773l76.362-15.262-85.563 177.759c-17.481-22.444-45.081-37.706-76.362-40.4l-37.721-2.693c-11.96-0.898-22.081-5.387-31.281-12.569l-23.921-20.649 86.483-178.657 37.721 67.333c11.040 18.853 32.201 28.729 54.282 25.138zM600.19 489.073c4.6 44.889-31.281 82.595-76.362 82.595h-23.921c-18.401 0-34.041 16.16-32.201 34.115 1.84 16.16 16.561 27.831 34.041 27.831h28.521c11.040 0 19.321-7.182 22.081-17.058 0.92-2.693 2.76-4.489 6.44-4.489h32.201c3.68 0 6.44 2.693 6.44 6.284-3.68 31.422-29.441 56.56-62.562 58.355v31.422c0 3.591-2.76 6.284-6.44 6.284h-32.201c-3.68 0-6.44-2.693-6.44-6.284v-31.422c-39.561-5.387-69.922-40.4-66.242-81.697 3.68-38.604 39.561-67.333 80.043-67.333h21.161c18.401 0 34.041-16.16 32.201-34.115-1.84-16.16-16.561-27.831-34.041-27.831h-29.441c-11.040 0-19.321 7.182-22.081 17.058-0.92 2.693-3.68 4.489-6.44 4.489h-32.201c-3.68 0-6.44-2.693-6.44-6.284 3.68-31.422 29.441-56.56 62.562-58.355v-31.422c0-3.591 2.76-6.284 6.44-6.284h32.201c3.68 0 6.44 2.693 6.44 6.284v32.32c34.041 5.387 62.562 31.422 66.242 65.537z" />
<glyph unicode="&#xe92a;" glyph-name="bill" d="M793.262 161.008l-1.014 652.72h-518.315l0.337-652.040 54.177-54.177 25.61 25.61-0.152 0.152 43.090 43.090 0.152-0.152 0.092 0.092 43.090-43.090-0.092-0.092 25.52-25.52 25.463 25.463-0.201 0.201 43.090 43.090 0.201-0.201 0.071 0.071 43.090-43.090-0.071-0.071 25.472-25.472 25.443 25.443-0.154 0.154 43.090 43.090 0.154-0.154 0.091 0.091 43.090-43.090-0.091-0.091 25.398-25.398 53.37 53.37zM853.187 134.942l-70.299-70.299 0.156-0.156-43.090-43.090-0.156 0.156-43.020 42.971-25.374 25.422-68.613-68.613-43.090 43.090 0.080 0.080-25.472 25.472-68.632-68.632-43.090 43.090 0.080 0.080-25.52 25.52-68.612-68.612-115.202 115.215v738.032h639.853v-739.725zM335.21 752.79h396.1v-60.938h-396.1v60.938zM335.21 630.913h396.1v-60.938h-396.1v60.938zM548.495 448.098h182.815v-60.938h-182.815v60.938zM548.495 326.221h182.815v-60.938h-182.815v60.938zM395.471 259.855c-36.523 5.559-57.294 27.911-59.923 58.579h44.688v0.339c3.724-16.25 16.25-26.745 35.209-26.745 23.36 0 30.808 11.172 30.808 23.698 0 15.573-8.125 23.021-37.579 31.485-53.49 15.235-69.064 35.209-69.064 64.662 0 32.064 23.544 51.998 53.49 57.612v20.931h37.579v-20.688c39.090-5.956 53.171-30.127 55.522-54.808h-44.688c-2.37 8.802-6.432 23.021-30.469 23.021-20.313 0-26.068-11.849-26.068-21.667 0-13.88 7.448-19.974 41.303-29.454 47.058-13.203 65.001-32.162 65.001-66.017 0-35.694-23.251-55.723-57.891-60.922v-25.069h-37.917v25.042z" />
<glyph unicode="&#xe92b;" glyph-name="Booking-Assigned" d="M853.333 584.55h-682.611v74.523c0 34.224 27.776 61.999 61.999 61.999h34.472v14.105c0 29.91 24.247 54.156 54.156 54.156s54.156-24.247 54.156-54.156v-14.105h273.044v14.105c0 29.91 24.247 54.156 54.156 54.156s54.156-24.247 54.156-54.156v-14.105h34.472c34.224 0 61.999-27.776 61.999-61.999v-74.523zM232.666 106.679c-34.224 0-61.999 27.776-61.999 61.999v349.241h682.611v-349.241c0-34.224-27.714-61.999-61.999-61.999h-558.613zM450.888 217.032c16.662-16.662 43.677-16.662 60.34 0l141.73 141.73c16.417 16.417 16.442 43.026 0.056 59.473-0.019 0.019-0.037 0.037-0.056 0.056-16.377 16.377-42.929 16.377-59.305 0l-112.595-112.595-50.726 50.584c-16.406 16.36-42.963 16.342-59.346-0.041-16.377-16.377-16.377-42.928 0-59.305l79.902-79.902z" />
<glyph unicode="&#xe92c;" glyph-name="Booking-unAssigned" d="M853.278 659.073v-74.523h-682.611v74.523c0 34.224 27.776 61.999 61.999 61.999h34.472v14.105c0 29.91 24.247 54.156 54.156 54.156v0c29.91 0 54.156-24.247 54.156-54.156v-14.105h273.044v14.105c0 29.91 24.247 54.156 54.156 54.156v0c29.91 0 54.156-24.247 54.156-54.156v-14.105h34.472c34.224 0 61.999-27.776 61.999-61.999zM256 517.92v-325.92h512v325.92h85.278v-349.241c0-34.224-27.714-61.999-61.999-61.999h-558.613c-34.224 0-61.999 27.776-61.999 61.999v349.241h85.333zM563.2 362.667l51.2-51.2c14.138-14.138 14.138-37.062 0-51.2s-37.062-14.138-51.2 0l-51.2 51.2-51.2-51.2c-14.138-14.138-37.062-14.138-51.2 0s-14.138 37.062 0 51.2l51.2 51.2-51.2 51.2c-14.138 14.138-14.138 37.062 0 51.2s37.062 14.138 51.2 0l51.2-51.2 51.2 51.2c14.138 14.138 37.062 14.138 51.2 0s14.138-37.062 0-51.2l-51.2-51.2z" />
<glyph unicode="&#xe92d;" glyph-name="Booking" d="M905.453 678.162c-2.712 15.122-15.985 26.050-31.347 25.809h-718.333c-15.438 0.659-29.054-10.029-32.078-25.182l-80.457-412.944c-1.776-9.177 0.636-18.668 6.578-25.883s14.794-11.403 24.142-11.419h130.403l2.403-13.688c2.712-15.122 15.985-26.050 31.347-25.809h717.079c9.369-0.148 18.312 3.903 24.38 11.043s8.624 16.619 6.967 25.842l-81.084 452.232zM112.201 291.55l42.423 217.339 38.661-217.339h-81.084zM756.346 430.312h-400.475v62.694h400.37l0.104-62.694z" />
<glyph unicode="&#xe92e;" glyph-name="Calendar" d="M853.333 659.073v-74.523h-682.611v74.523c0 34.224 27.776 61.999 61.999 61.999h34.472v14.105c0 29.91 24.247 54.156 54.156 54.156v0c29.91 0 54.156-24.247 54.156-54.156v-14.105h273.044v14.105c0 29.91 24.247 54.156 54.156 54.156v0c29.91 0 54.156-24.247 54.156-54.156v-14.105h34.472c34.224 0 61.999-27.776 61.999-61.999zM791.278 106.679h-558.613c-34.224 0-61.999 27.776-61.999 61.999v349.241h682.611v-349.241c0-34.224-27.714-61.999-61.999-61.999zM768 277.333c0-47.132-38.188-85.333-85.302-85.333-47.177 0-85.364 38.202-85.364 85.333s38.188 85.333 85.364 85.333c47.115 0 85.302-38.202 85.302-85.333z" />
<glyph unicode="&#xe92f;" glyph-name="ATM-on-site_ic" d="M616.107 146.347h177.067v-125.013h-177.067zM230.827 21.333h177.067v125.013h-177.067zM793.173 874.667v-686.933h-562.347v686.933zM626.347 822.613c0 0.001 0 0.003 0 0.004 0 11.396-9.119 20.663-20.458 20.902h-291.435c-11.546 0-20.907-9.36-20.907-20.907v0-551.68c0.239-11.361 9.506-20.48 20.902-20.48 0.002 0 0.003 0 0.005 0h291.413c11.216 0.234 20.246 9.264 20.48 20.458v0.022zM730.453 270.933v4.267s0 2.987 0 4.267 0 0-2.133 2.987c-1.156 0.977-2.145 2.101-2.951 3.354l-0.036 0.059c-0.448 0.13-0.962 0.205-1.493 0.205s-1.046-0.075-1.532-0.214l0.039 0.010s-2.133 0-3.413 0-2.133 0-3.84 0c-0.948 0.124-2.044 0.195-3.156 0.195-5.906 0-11.344-2-15.675-5.359l0.058 0.044s-2.133 0-2.133-3.413 0 0-2.133-2.987c-0.232-0.635-0.366-1.369-0.366-2.133s0.134-1.498 0.38-2.178l-0.014 0.045v-4.267c-0.001-0.067-0.001-0.147-0.001-0.226 0-5.588 2.285-10.642 5.972-14.278l0.002-0.002c2.394-3.654 6.469-6.035 11.1-6.035 0.448 0 0.891 0.022 1.328 0.066l-0.055-0.004h8.533c1.293 0.235 2.365 1.027 2.976 2.112l0.011 0.021c0.512-0.062 1.105-0.098 1.707-0.098s1.194 0.036 1.777 0.105l-0.071-0.007c3.75 4.478 6.027 10.301 6.027 16.655 0 2.423-0.331 4.769-0.951 6.994l0.043-0.183zM730.453 583.253c0.003 0.143 0.005 0.31 0.005 0.479 0 5.36-1.938 10.267-5.151 14.060l0.026-0.032c-3.674 3.963-8.908 6.435-14.72 6.435s-11.046-2.472-14.708-6.422l-0.012-0.013s-2.133 0-2.133-2.987 0 0 0-2.987 0 0 0-4.267v-8.533s0-2.133 0-3.84 0-2.133 0-3.413 0-2.133 2.133-2.987 2.133-2.133 3.413-2.133 0 0 2.987 0h16.64s2.133 0 2.987 0c1.303 0.595 2.427 1.308 3.437 2.153l-0.024-0.019c3.187 3.761 5.125 8.668 5.125 14.028 0 0.168-0.002 0.336-0.006 0.504v-0.025zM730.453 687.36c0.003 0.143 0.005 0.31 0.005 0.479 0 5.36-1.938 10.267-5.151 14.060l0.026-0.032s-2.133 0-3.413 0c-0.444-0.171-0.957-0.27-1.493-0.27s-1.050 0.099-1.523 0.28l0.029-0.010s0 0-4.267 0h-15.36s-2.133 0-3.413 0-2.133 0-2.133-2.987v-3.413s0 0 0-3.84v-4.267c0.106-5.718 2.54-10.848 6.391-14.498l0.009-0.009c2.907-3.906 7.511-6.409 12.699-6.409 0.185 0 0.37 0.003 0.554 0.010l-0.027-0.001h4.267s2.133 0 4.267 0c0.444-0.171 0.957-0.27 1.493-0.27s1.050 0.099 1.523 0.28l-0.029-0.010h3.413c2.038 3.799 3.235 8.313 3.235 13.105 0 2.779-0.403 5.464-1.153 8l0.051-0.199zM730.453 791.467c0.003 0.143 0.005 0.31 0.005 0.479 0 5.36-1.938 10.267-5.151 14.060l0.026-0.032s-2.133 0-3.413 0c-1.293 0.235-2.365 1.027-2.976 2.112l-0.011 0.021s0 0-4.267 0c-1.207 0.229-2.596 0.359-4.016 0.359-5.653 0-10.822-2.074-14.786-5.504l0.029 0.024s-2.133-2.133-2.133-2.987 0 0 0-3.413 0 0 0-3.84v-8.533s0 0 0-4.267c-0.13-0.448-0.205-0.962-0.205-1.493s0.075-1.046 0.214-1.532l-0.010 0.039s0 0 2.133-2.987c3.658-3.86 8.788-6.294 14.487-6.4h4.286s2.133 0 4.267 0c0.448-0.13 0.962-0.205 1.493-0.205s1.046 0.075 1.532 0.214l-0.039-0.010c0.512 0.062 1.105 0.098 1.707 0.098s1.194-0.036 1.777-0.105l-0.071 0.007c3.52 4.501 5.644 10.242 5.644 16.479 0 1.869-0.191 3.693-0.554 5.455l0.030-0.174zM334.933 291.84h250.027v509.867h-250.027zM449.707 21.333h124.587v125.013h-124.587z" />
<glyph unicode="&#xe930;" glyph-name="Check-Mark" d="M389.776 242.064l-159.804 159.804c-32.753 32.753-32.753 85.857 0 118.61v0c32.767 32.767 85.881 32.804 118.693 0.083l101.451-101.169 225.19 225.19c32.753 32.753 85.857 32.753 118.611 0 0.037-0.037 0.074-0.075 0.112-0.112v0c32.771-32.895 32.721-86.113-0.112-118.946l-283.46-283.46c-33.325-33.325-87.355-33.325-120.68 0z" />
<glyph unicode="&#xe931;" glyph-name="Connection" d="M734.455 832.004c-50.773 0-91.947-41.173-91.947-91.947 0.043-6.827 0.853-13.611 2.389-20.267l-181.76-136.747c-27.307 22.187-61.355 34.347-96.555 34.389-84.608 0-153.259-68.651-153.259-153.301 0-84.608 68.651-153.259 153.259-153.259 38.869 0.043 76.203 14.805 104.576 41.301l173.739-130.773c-1.451-6.443-2.389-13.184-2.389-20.096 0-50.816 41.173-91.947 91.947-91.947s91.947 41.131 91.947 91.947c0 50.773-41.173 91.989-91.947 91.989-21.461 0-40.875-7.723-56.533-20.011l-171.221 128.939c8.661 19.499 13.141 40.576 13.184 61.909 0 24.917-6.101 49.451-17.707 71.509l175.531 132.053c16.171-12.715 36.181-19.627 56.747-19.627 50.773 0 91.947 41.173 91.947 91.947 0 50.816-41.173 91.989-91.947 91.989z" />
<glyph unicode="&#xe932;" glyph-name="Credit" d="M853.333 789.333h-682.667c-47.36 0-84.907-37.973-84.907-85.333l-0.427-512c0-47.36 37.973-85.333 85.333-85.333h682.667c47.36 0 85.333 37.973 85.333 85.333v512c0 47.36-37.973 85.333-85.333 85.333zM853.333 192h-682.667v256h682.667v-256zM853.333 618.667h-682.667v85.333h682.667v-85.333z" />
<glyph unicode="&#xe933;" glyph-name="ic_email" d="M853.333 789.333h-682.667c-46.933 0-84.907-38.4-84.907-85.333l-0.427-512c0-46.933 38.4-85.333 85.333-85.333h682.667c46.933 0 85.333 38.4 85.333 85.333v512c0 46.933-38.4 85.333-85.333 85.333v0zM853.333 618.667l-341.333-213.333-341.333 213.333v85.333l341.333-213.333 341.333 213.333v-85.333z" />
<glyph unicode="&#xe934;" glyph-name="edit" d="M128 224v-160h160l471.893 471.893-160 160-471.893-471.893zM883.627 659.627c16.64 16.64 16.64 43.52 0 60.16l-99.84 99.84c-16.64 16.64-43.52 16.64-60.16 0l-78.080-78.080 160-160 78.080 78.080z" />
<glyph unicode="&#xe935;" glyph-name="Dashboard" d="M549.931 751.403v-151.723c0-20.821 17.067-37.888 37.931-37.888h227.541c20.864 0 37.931 17.067 37.931 37.888v151.723c0 20.864-17.067 37.931-37.931 37.931h-227.541c-20.864 0-37.931-17.067-37.931-37.931zM587.861 106.667h227.541c20.864 0 37.931 17.067 37.931 37.931v303.403c0 20.821-17.067 37.931-37.931 37.931h-227.541c-20.864 0-37.931-17.109-37.931-37.931v-303.403c0-20.864 17.067-37.931 37.931-37.931zM208.597 106.667h227.541c20.864 0 37.931 17.067 37.931 37.931v151.68c0 20.864-17.067 37.931-37.931 37.931h-227.541c-20.864 0-37.931-17.067-37.931-37.931v-151.68c0-20.864 17.067-37.931 37.931-37.931zM208.597 410.069h227.541c20.864 0 37.931 17.067 37.931 37.931v303.403c0 20.864-17.067 37.931-37.931 37.931h-227.541c-20.864 0-37.931-17.067-37.931-37.931v-303.403c0-20.864 17.067-37.931 37.931-37.931z" />
<glyph unicode="&#xe936;" glyph-name="drop-down-list-expanded" d="M731.587 356.417l-204.472 204.497c-8.331 8.332-21.838 8.332-30.17 0.002l-204.521-204.497c-8.332-8.331-8.332-21.838-0.002-30.17 4.001-4.001 9.427-6.249 15.086-6.249h408.994c11.782 0 21.333 9.551 21.333 21.333 0 5.658-2.247 11.083-6.247 15.084z" />
<glyph unicode="&#xe937;" glyph-name="favorite" d="M512 49.067l-61.867 56.32c-219.733 199.253-364.8 330.667-364.8 491.947 0 131.413 103.253 234.667 234.667 234.667 74.24 0 145.493-34.56 192-89.173 46.507 54.613 117.76 89.173 192 89.173 131.413 0 234.667-103.253 234.667-234.667 0-161.28-145.067-292.693-364.8-492.373l-61.867-55.893z" />
<glyph unicode="&#xe938;" glyph-name="email" d="M853.333 789.333h-682.667c-46.933 0-84.907-38.4-84.907-85.333l-0.427-512c0-46.933 38.4-85.333 85.333-85.333h682.667c46.933 0 85.333 38.4 85.333 85.333v512c0 46.933-38.4 85.333-85.333 85.333v0zM853.333 618.667l-341.333-213.333-341.333 213.333v85.333l341.333-213.333 341.333 213.333v-85.333z" />
<glyph unicode="&#xe939;" glyph-name="star-half" d="M512 322.947l-145.43-105.628c-16.307-11.887-38.349 4.122-32.077 23.356l56.329 173.346-147.482 107.162c-16.427 11.887-7.945 37.811 12.245 37.811h182.306l56.329 173.346c2.848 8.819 10.13 13.595 17.78 14.326v-423.719zM512 322.947l145.43-105.628c16.307-11.887 38.349 4.122 32.077 23.356l-56.329 173.346 147.482 107.162c16.427 11.887 7.945 37.811-12.245 37.811h-182.306l-56.329 173.346c-2.848 8.819-10.13 13.595-17.78 14.326v-423.719z" />
<glyph unicode="&#xe93a;" glyph-name="Attached-bathroom_ic" d="M248.747 780.373h250.027v-47.36h-17.92c-0.381 0.005-0.83 0.009-1.28 0.009-52.784 0-95.573-42.79-95.573-95.573 0-0.003 0-0.006 0-0.009v0-85.333h298.667v85.333c0 0.001 0 0.002 0 0.004 0 52.484-42.305 95.087-94.674 95.569h-17.966v119.040h-392.96v-736.427h-85.333v-71.68h839.68v71.68h-682.667zM612.267 637.44v-11.52h-155.307v11.52c0.235 13.1 10.793 23.658 23.871 23.893h107.542c12.787-0.909 22.842-11.409 23.040-24.301v-0.019zM305.067 504.747c7.018 1.365 15.089 2.146 23.343 2.146 0.644 0 1.286-0.005 1.928-0.014l-0.097 0.001c0.855 0.061 1.853 0.096 2.859 0.096 9.709 0 18.661-3.243 25.832-8.705l-0.104 0.076c5.287-4.922 8.583-11.922 8.583-19.692 0-0.577-0.018-1.151-0.054-1.719l0.004 0.078c0.029-0.484 0.045-1.050 0.045-1.621 0-7.62-2.938-14.554-7.742-19.731l0.017 0.018c-7.558-6.92-17.669-11.16-28.771-11.16-0.836 0-1.666 0.024-2.49 0.071l0.114-0.005c-1.538-0.218-3.314-0.343-5.12-0.343s-3.582 0.125-5.321 0.366l0.201-0.023v-42.667h-13.227zM318.293 456.107c1.603-0.251 3.451-0.394 5.333-0.394s3.731 0.143 5.535 0.42l-0.202-0.025c15.787 0 25.6 7.68 25.6 21.76s-9.813 19.627-23.893 19.627h-12.373zM384 504.747c7.29 1.359 15.678 2.136 24.247 2.136 0.326 0 0.651-0.001 0.976-0.003h-0.050c1.286 0.149 2.776 0.235 4.285 0.235 9.406 0 18.038-3.308 24.799-8.824l-0.071 0.056c4.998-4.474 8.129-10.945 8.129-18.147 0-0.37-0.008-0.738-0.025-1.105l0.002 0.052c0-0.048 0-0.104 0-0.16 0-12.027-8.026-22.179-19.014-25.393l-0.187-0.047c8.059-3.782 13.788-11.351 14.92-20.352l0.013-0.128c2.515-11.512 5.16-20.944 8.266-30.164l-0.586 2.004h-13.227c-2.649 6.806-5.009 14.959-6.669 23.364l-0.157 0.956c-2.987 13.653-7.253 18.773-19.2 18.773h-12.373v-42.667h-14.080zM396.8 458.667h13.653c14.080 0 22.613 7.68 22.613 19.2s-9.387 18.773-23.040 18.773c-1.988 0.328-4.279 0.516-6.613 0.516s-4.625-0.188-6.858-0.548l0.245 0.033zM479.147 506.027v-100.693h-12.8v100.693zM524.373 405.333l-32.853 101.547h14.080l15.787-49.92c4.267-13.653 8.107-26.027 10.667-37.973v0c3.586 15.143 7.539 27.822 12.244 40.13l-0.724-2.156 17.067 49.92h14.080l-35.84-101.547zM593.92 436.48l-10.667-32h-13.227l34.133 101.547h15.787l34.56-100.693h-14.507l-11.093 32zM627.2 448l-9.813 29.44c-1.818 4.749-3.72 10.873-5.288 17.129l-0.258 1.218-5.12-18.347-9.387-29.44zM677.547 494.933h-31.147v11.093h75.093v-11.093h-30.72v-89.6h-13.227zM785.493 452.267h-39.68v-36.693h42.667v-10.24h-55.467v100.693h54.613v-11.093h-42.667v-32h39.68z" />
<glyph unicode="&#xe93b;" glyph-name="drop-down-list" d="M292.413 539.583l204.472-204.497c8.331-8.332 21.838-8.332 30.17-0.002l204.521 204.497c8.332 8.331 8.332 21.838 0.002 30.17-4.001 4.001-9.427 6.249-15.086 6.249h-408.994c-11.782 0-21.333-9.551-21.333-21.333 0-5.658 2.247-11.083 6.247-15.084z" />
<glyph unicode="&#xe93c;" glyph-name="Like" d="M187.733 533.333c18.851 0 34.133-15.282 34.133-34.133v-443.733h-102.4c-18.851 0-34.133 15.282-34.133 34.133v409.6c0 18.851 15.282 34.133 34.133 34.133h68.267zM832.239 562.927c25.965-7.973 47.698-25.936 60.417-49.935s15.384-52.068 7.406-78.031l-94.515-307.2c-13.083-43.104-52.918-72.501-97.963-72.294l-417.451-0.001v428.784l136.533 163.84v158.31c-0.010 9.316 3.788 18.232 10.513 24.678 6.751 6.376 15.774 9.781 25.054 9.455 46.729-1.98 135.1-40.141 135.1-170.667v-102.4h204.8c10.206 0.003 20.354-1.528 30.106-4.54z" />
<glyph unicode="&#xe93d;" glyph-name="Menu" d="M128 192h768v85.333h-768v-85.333zM128 405.333h768v85.333h-768v-85.333zM128 704v-85.333h768v85.333h-768z" />
<glyph unicode="&#xe93e;" glyph-name="Error" d="M512 832c211.567 0 384-172.433 384-384s-172.433-384-384-384c-211.567 0-384 172.433-384 384s172.433 384 384 384zM469.333 704v-341.333h85.333v341.333h-85.333zM469.333 320v-85.333h85.333v85.333h-85.333z" />
<glyph unicode="&#xe93f;" glyph-name="Excel" d="M911.163 776.205c15.13 0 27.504-12.833 27.504-28.554v-599.303c0-15.721-12.373-28.554-27.504-28.554h-300.702v98.462h98.462v65.641h-98.462v65.641h98.462v65.641h-98.462v65.641h98.462v65.641h-98.462v65.149h99.479v66.658h-99.479v97.936h300.702zM873.026 218.256v65.641h-131.282v-65.641h131.282zM873.026 349.538v65.641h-131.282v-65.641h131.282zM873.026 480.821v65.641h-131.282v-65.641h131.282zM873.026 612.103v65.641h-131.282v-65.641h131.282zM85.333 779.848l492.308 94.818v-853.333l-492.308 94.786v663.729zM396.734 281.272l88.779 0.033-102.466 167.614 99.676 164.825h-83.43l-52.841-98.757c-5.087-12.833-8.566-22.482-10.437-28.981h-0.919c-2.954 10.798-6.269 20.152-9.977 28.029l-47.524 99.676h-91.11l96.919-166.236-105.945-166.203h89.239l57.469 107.323c4.037 10.371 6.597 18.117 7.68 23.204h0.886c2.33-10.798 4.562-18.215 6.728-22.252l57.272-108.275z" />
<glyph unicode="&#xe940;" glyph-name="Exit" d="M512.024 503.655l157.678 157.678 55.631-55.679-157.654-157.654 157.654-157.654-55.631-55.679-157.678 157.678-157.678-157.678-55.679 55.631 157.702 157.702-157.702 157.702 55.679 55.631z" />
<glyph unicode="&#xe941;" glyph-name="eye-disabled" d="M362.642 533.358c-21.1-30.143-33.499-66.953-33.499-106.692 0-102.111 81.868-184.889 182.857-184.889 40.027 0 77.049 13.004 107.162 35.060l-72.651 72.651c-10.523-4.818-22.208-7.501-34.511-7.501-46.253 0-83.749 37.912-83.749 84.679 0 12.108 2.513 23.623 7.042 34.040l-72.651 72.651zM700.819 195.181c-56.922-27.483-121.024-45.848-188.819-45.848-235.641 0-426.667 221.867-426.667 277.333 0 34.142 72.377 131.33 182.985 201.015l-140.319 140.319 64 64 704-704-64-64-131.181 131.181zM414.134 691.539c31.426 7.929 64.19 12.461 97.866 12.461 235.641 0 426.667-221.867 426.667-277.333 0-26.076-42.219-88.928-111.445-148.216l-132.977 132.977c0.405 5.025 0.612 10.107 0.612 15.238 0 102.111-81.868 184.889-182.857 184.889-5.761 0-11.461-0.269-17.086-0.796l-80.78 80.78z" />
<glyph unicode="&#xe942;" glyph-name="star" d="M512.61 732.241l56.329-173.346h182.306c20.25 0 28.672-25.924 12.245-37.811l-147.482-107.162 56.388-173.346c6.212-19.234-15.829-35.243-32.137-23.356l-147.482 107.162-147.541-107.162c-16.307-11.887-38.349 4.122-32.077 23.356l56.329 173.346-147.482 107.162c-16.427 11.887-7.945 37.811 12.245 37.811h182.306l56.329 173.346c6.212 19.234 33.51 19.234 39.723 0z" />
<glyph unicode="&#xe943;" glyph-name="adult" d="M533.333 682.667c-64.807 0-117.333 52.526-117.333 117.333s52.526 117.333 117.333 117.333c64.807 0 117.333-52.526 117.333-117.333s-52.526-117.333-117.333-117.333zM611.556-21.333h-156.444c-21.589 0-39.111 17.522-39.111 39.111v234.667h-117.333v234.667c0 64.807 52.526 117.333 117.333 117.333h234.667c64.807 0 117.333-52.526 117.333-117.333v-234.667h-117.333v-234.667c0-21.589-17.522-39.111-39.111-39.111z" />
<glyph unicode="&#xe944;" glyph-name="eye" d="M512 149.333c-235.641 0-426.667 221.867-426.667 277.333s191.025 277.333 426.667 277.333c235.641 0 426.667-221.867 426.667-277.333s-191.025-277.333-426.667-277.333zM512 241.778c100.989 0 182.857 82.778 182.857 184.889s-81.868 184.889-182.857 184.889c-100.989 0-182.857-82.778-182.857-184.889s81.868-184.889 182.857-184.889zM512 341.988c-46.253 0-83.749 37.912-83.749 84.679s37.496 84.679 83.749 84.679c46.253 0 83.749-37.912 83.749-84.679s-37.496-84.679-83.749-84.679z" />
<glyph unicode="&#xe945;" glyph-name="Filter" d="M426.667 192h170.667v85.333h-170.667v-85.333zM128 704v-85.333h768v85.333h-768zM256 405.333h512v85.333h-512v-85.333z" />
<glyph unicode="&#xe946;" glyph-name="Flag-Copy" d="M525.361 194.326l22.687 111.373h-107.553l-22.429-111.552c-5.24-26.063-28.135-44.813-54.72-44.813v0c-20.674 0-37.434 16.76-37.434 37.434 0 2.478 0.246 4.95 0.734 7.379l22.429 111.552h-46.381c-21.462 0-38.859 17.398-38.859 38.859 0 2.367 0.216 4.73 0.646 7.057v0c4.914 26.607 28.117 45.917 55.174 45.917h47.209l22.338 108.38h-49.232c-21.162 0-38.318 17.155-38.318 38.318 0 2.411 0.228 4.817 0.68 7.185v0c5.041 26.404 28.131 45.503 55.012 45.503h49.232l21.457 104.963c5.328 26.065 28.26 44.784 54.865 44.784v0c20.718 0 37.514-16.796 37.514-37.514 0-2.457-0.241-4.908-0.721-7.318l-20.867-104.915h106.726l21.415 104.76c5.352 26.183 28.388 44.987 55.113 44.987v0c20.756 0 37.582-16.826 37.582-37.582 0-2.495-0.248-4.983-0.742-7.429l-21.121-104.736h51.338c21.239 0 38.457-17.218 38.457-38.457 0-2.364-0.218-4.722-0.651-7.046v0c-4.916-26.377-27.935-45.503-54.767-45.503h-52.579l-22.338-108.38h53c21.462 0 38.859-17.398 38.859-38.859 0-2.367-0.216-4.73-0.646-7.057v0c-4.914-26.607-28.117-45.917-55.174-45.917h-53.827l-22.388-111.35c-5.264-26.181-28.263-45.016-54.968-45.016v0c-20.714 0-37.506 16.792-37.506 37.506 0 2.514 0.253 5.023 0.755 7.486zM450.837 389.259h118.722l26.061 124.513h-119.136l-25.647-124.513z" />
<glyph unicode="&#xe947;" glyph-name="Flag" d="M768 704v-536.848c0-23.564-19.103-42.667-42.667-42.667-11.331 0-22.196 4.507-30.2 12.527l-152.933 153.239c-16.646 16.679-43.661 16.706-60.34 0.060-0.020-0.020-0.040-0.040-0.060-0.060l-152.933-153.239c-16.646-16.679-43.661-16.706-60.34-0.060-8.020 8.004-12.527 18.869-12.527 30.2v536.848c0 23.564 19.103 42.667 42.667 42.667h426.667c23.564 0 42.667-19.103 42.667-42.667z" />
<glyph unicode="&#xe948;" glyph-name="Help" d="M1024 448c0-282.77-229.23-512-512-512s-512 229.23-512 512c0 282.77 229.23 512 512 512s512-229.23 512-512zM298.667 602.417c2.22 110.552 79.473 186.916 215.775 186.916 126.979 0 210.891-70.593 210.891-173.153 0-66.597-32.411-113.215-95.012-150.066-59.050-34.187-75.477-55.942-75.477-98.564v-23.531h-117.655l-0.888 24.419c-5.772 71.037 18.647 110.995 79.917 146.958 57.274 34.187 74.589 55.498 74.589 96.788s-33.743 70.593-84.357 70.593c-51.058 0-84.801-31.523-87.464-80.361h-120.319zM500.678 129.576c-49.726 0-80.805 28.859-80.805 75.477 0 47.062 31.079 75.921 80.805 75.921s80.361-28.859 80.361-75.921c0-46.618-30.635-75.477-80.361-75.477z" />
<glyph unicode="&#xe949;" glyph-name="Baby-safety-gates_1_ic" d="M938.667 621.653v253.013h-853.333v-853.333h853.333v269.653h-85.333v-184.32h-682.667v682.667h682.667v-167.68zM606.293 485.547c0-17.437-14.136-31.573-31.573-31.573s-31.573 14.136-31.573 31.573c0 17.437 14.136 31.573 31.573 31.573s31.573-14.136 31.573-31.573zM480.853 485.547c0-17.437-14.136-31.573-31.573-31.573s-31.573 14.136-31.573 31.573c0 17.437 14.136 31.573 31.573 31.573s31.573-14.136 31.573-31.573zM786.773 431.36c0.217 2.492 0.341 5.391 0.341 8.32s-0.124 5.828-0.367 8.694l0.026-0.374c0.209 2.491 0.329 5.392 0.329 8.32s-0.119 5.829-0.354 8.697l0.025-0.377c-6.701 38.127-34.181 68.457-70.117 79.178l-0.71 0.182c-13.63 29.31-32.176 54.136-54.83 74.481l-0.21 0.186c-39.401 35.009-91.588 56.394-148.77 56.394-90.091 0-167.784-53.084-203.505-129.68l-0.578-1.381c-36.645-10.903-64.126-41.233-70.739-78.757l-0.088-0.603c-0.209-2.491-0.329-5.392-0.329-8.32s0.119-5.829 0.354-8.697l-0.025 0.377c-0.217-2.492-0.341-5.391-0.341-8.32s0.124-5.828 0.367-8.694l-0.026 0.374c6.701-38.127 34.181-68.457 70.117-79.178l0.71-0.182c13.101-29.393 31.413-54.266 53.981-74.486l0.205-0.181c39.41-35.483 91.837-57.186 149.333-57.186s109.923 21.704 149.535 57.365l-0.202-0.179c22.476 20.015 40.834 44.103 54.016 71.175l0.597 1.359c37.373 11.083 65.253 42.389 71.183 80.934l0.071 0.56zM687.787 397.653h-7.253c-5.427-17.707-12.831-33.133-22.17-47.161l0.41 0.654c-31.664-48.297-85.545-79.753-146.773-79.753s-115.11 31.456-146.365 79.090l-0.409 0.664c-8.929 13.374-16.333 28.8-21.423 45.243l-0.337 1.264h-7.253c-27.806 0-50.347 22.541-50.347 50.347s22.541 50.347 50.347 50.347h7.253c5.427 17.707 12.831 33.133 22.17 47.161l-0.41-0.654c31.664 48.297 85.545 79.753 146.773 79.753s115.11-31.456 146.365-79.090l0.409-0.664c9.754-13.607 17.858-29.294 23.525-46.103l0.368-1.257h7.253c27.806 0 50.347-22.541 50.347-50.347s-22.541-50.347-50.347-50.347v0zM398.933 397.653c19.214-44.321 62.586-74.761 113.067-74.761s93.852 30.441 112.759 73.967l0.307 0.794z" />
<glyph unicode="&#xe94a;" glyph-name="Hotel" d="M298.656 832h426.639v-170.606h170.705v-554.727h-768v554.727h170.656v170.606zM554.639 661.394h85.328v85.278h-85.328v-85.278zM383.983 661.394h85.328v85.278h-85.328v-85.278zM725.295 490.738h85.328v85.278h-85.328v-85.278zM554.639 490.738h85.328v85.278h-85.328v-85.278zM383.983 490.738h85.328v85.278h-85.328v-85.278zM213.328 490.738h85.328v85.278h-85.328v-85.278zM725.295 319.983h85.328v85.377h-85.328v-85.377zM455.107 149.377h113.737v255.983h-113.737v-255.983zM213.328 319.983h85.328v85.377h-85.328v-85.377z" />
<glyph unicode="&#xe94c;" glyph-name="House-Keeping" d="M867.552 64h-213.333l-71.104 355.552h355.552l-71.115-355.552zM476.448 135.115h106.667v-71.115h-497.781v71.115h106.667v71.104h106.667v625.781h71.115v-625.781h106.667v-71.104zM867.552 490.667c0 58.891-47.744 106.667-106.667 106.667-58.912 0-106.667-47.776-106.667-106.667h-71.104c0 98.197 79.584 177.781 177.771 177.781 98.197 0 177.781-79.584 177.781-177.781h-71.115z" />
<glyph unicode="&#xe94d;" glyph-name="Inbox" d="M482.901 704h68.352v-180.011l42.795 45.397 47.787-50.731-124.757-132.267-124.757 132.267 47.787 50.731 42.795-45.397v180.011zM778.667 573.269h84.821v-379.093h-692.821v379.093h84.864v-294.229h523.136v294.229z" />
<glyph unicode="&#xe94e;" glyph-name="Key" d="M397.722 531.895c-41.515 0.171-75.008 33.963-74.837 75.52 0.171 41.472 33.963 74.965 75.52 74.795 41.472-0.171 75.008-33.963 74.837-75.477-0.085-20.096-8.235-39.296-22.571-53.376-14.123-13.824-33.152-21.547-52.949-21.461v0zM815.428 256.482l-253.653 253.099c-3.328 3.328-4.053 8.491-1.792 12.629 46.208 90.155 10.581 200.704-79.573 246.912-90.112 46.208-200.619 10.581-246.827-79.573-46.208-90.112-10.624-200.619 79.531-246.827 53.163-27.264 116.267-26.923 169.088 0.896 4.181 2.261 9.344 1.536 12.672-1.792l105.899-105.557c4.139-4.224 4.139-10.965 0-15.147l-49.707-50.133c-6.101-6.187-6.101-16.085 0-22.229l82.56-82.56c6.101-6.101 16-6.101 22.101 0l50.176 50.133c4.181 4.139 10.923 4.139 15.147 0l27.349-27.392c10.581-10.539 27.691-10.539 38.229 0l28.8 29.184c10.581 10.581 10.624 27.691 0.043 38.272l-0.043 0.085z" />
<glyph unicode="&#xe94f;" glyph-name="Lightning" d="M768 555.682h-202.091l80.187 318.985-390.095-491.682h202.091l-80.187-318.985z" />
<glyph unicode="&#xe950;" glyph-name="Location" d="M512 874.667c-165.12 0-298.667-133.547-298.667-298.667 0-224 298.667-554.667 298.667-554.667s298.667 330.667 298.667 554.667c0 165.12-133.547 298.667-298.667 298.667zM512 469.333c-58.88 0-106.667 47.787-106.667 106.667s47.787 106.667 106.667 106.667c58.88 0 106.667-47.787 106.667-106.667s-47.787-106.667-106.667-106.667z" />
<glyph unicode="&#xe951;" glyph-name="Login" d="M381.44 327.68l78.507 77.653h-331.947v85.333h331.947l-78.507 77.653 60.587 60.587 180.907-180.907-180.907-180.907-60.587 60.587zM213.333 832h597.333c47.128 0 85.333-38.205 85.333-85.333v-597.333c0-47.128-38.205-85.333-85.333-85.333h-597.333c-47.128 0-85.333 38.205-85.333 85.333v170.667h85.333v-170.667h597.333v597.333h-597.333v-170.667h-85.333v170.667c0 47.128 38.205 85.333 85.333 85.333z" />
<glyph unicode="&#xe952;" glyph-name="Logout" d="M650.24 338.773l78.507 77.653h-331.947v85.333h331.947l-78.507 77.653 60.587 60.587 180.907-180.907-180.907-180.907-60.587 60.587zM810.667 64h-597.333c-47.128 0-85.333 38.205-85.333 85.333v597.333c0 47.128 38.205 85.333 85.333 85.333h597.333c47.128 0 85.333-38.205 85.333-85.333v-93.867h-85.333v93.867h-597.333v-597.333h597.333v93.867h85.333v-93.867c0-47.128-38.205-85.333-85.333-85.333z" />
<glyph unicode="&#xe953;" glyph-name="Map" d="M625.785 182.526l-227.556 80.024v450.939l227.556-80.024v-450.939zM834.378 789.341l-6.068-1.138-202.524-78.507-227.556 79.644-213.94-72.059c-7.964-2.655-13.615-9.481-13.615-18.204v-573.44c0-10.619 8.344-18.963 18.963-18.963l6.068 1.138 202.524 78.507 227.556-79.644 213.902 72.059c7.964 2.655 13.653 9.481 13.653 18.204v573.44c0 10.619-8.382 18.963-18.963 18.963v0z" />
<glyph unicode="&#xe954;" glyph-name="minus" d="M213.333 490.667v-79.555h597.333v79.555z" />
<glyph unicode="&#xe955;" glyph-name="More" d="M256 362.667c-47.128 0-85.333 38.205-85.333 85.333s38.205 85.333 85.333 85.333c47.128 0 85.333-38.205 85.333-85.333s-38.205-85.333-85.333-85.333zM512 362.667c-47.128 0-85.333 38.205-85.333 85.333s38.205 85.333 85.333 85.333c47.128 0 85.333-38.205 85.333-85.333s-38.205-85.333-85.333-85.333zM768 362.667c-47.128 0-85.333 38.205-85.333 85.333s38.205 85.333 85.333 85.333c47.128 0 85.333-38.205 85.333-85.333s-38.205-85.333-85.333-85.333z" />
<glyph unicode="&#xe956;" glyph-name="Night" d="M356.54 766.158c-9.865-29.655-15.207-61.375-15.207-94.343 0-164.949 133.718-298.667 298.667-298.667 83.57 0 159.124 34.324 213.333 89.643 0-0.197 0-0.393 0-0.59 0-188.513-152.82-341.333-341.333-341.333s-341.333 152.82-341.333 341.333c0 132.521 75.521 247.404 185.873 303.957z" />
<glyph unicode="&#xe957;" glyph-name="Note" d="M640 106.667h-426.667c-46.933 0-85.333 38.4-85.333 85.333v512.427c0 46.933 38.4 84.907 85.333 84.907l597.333-0.427c46.933 0 85.333-37.973 85.333-84.907v-341.333l-256-256zM874.667 405.333h-234.667v-234.667l234.667 234.667z" />
<glyph unicode="&#xe958;" glyph-name="package" d="M213.333 405.333v-99.556c0-23.564 19.103-42.667 42.667-42.667s42.667 19.103 42.667 42.667v99.556h113.778c31.419 0 56.889-25.47 56.889-56.889v-227.556c0-31.419-25.47-56.889-56.889-56.889h-312.889c-31.419 0-56.889 25.47-56.889 56.889v227.556c0 31.419 25.47 56.889 56.889 56.889h113.778zM469.333 832v-99.556c0-23.564 19.103-42.667 42.667-42.667s42.667 19.103 42.667 42.667v99.556h113.778c31.419 0 56.889-25.47 56.889-56.889v-227.556c0-31.419-25.47-56.889-56.889-56.889h-312.889c-31.419 0-56.889 25.47-56.889 56.889v227.556c0 31.419 25.47 56.889 56.889 56.889h113.778zM725.333 405.333v-99.556c0-23.564 19.103-42.667 42.667-42.667s42.667 19.103 42.667 42.667v99.556h113.778c31.419 0 56.889-25.47 56.889-56.889v-227.556c0-31.419-25.47-56.889-56.889-56.889h-312.889c-31.419 0-56.889 25.47-56.889 56.889v227.556c0 31.419 25.47 56.889 56.889 56.889h113.778z" />
<glyph unicode="&#xe959;" glyph-name="Pending" d="M512 832c211.567 0 384-172.433 384-384s-172.433-384-384-384c-211.567 0-384 172.433-384 384s172.433 384 384 384zM516.249 704h-89.582v-303.158l220.958-93.491 35.042 82.534-166.418 70.615v243.501z" />
<glyph unicode="&#xe95a;" glyph-name="Plan" d="M407.68 641.237v88.875h236.971v-88.875h-236.971zM822.4 641.237h-118.528v88.875c0 32.555-26.667 59.221-59.221 59.221h-236.971c-32.597 0-59.264-26.667-59.264-59.221v-88.875h-118.485c-32.597 0-59.264-26.667-59.264-59.264v-355.499c0-32.555 26.667-59.221 59.264-59.221h207.36v296.235c-16.299 0-29.611 13.312-29.611 29.653v88.832h59.221v-59.221h118.485v59.221h59.264v-88.832c0-16.341-13.355-29.653-29.653-29.653v-296.235h207.403c32.555 0 59.221 26.667 59.221 59.221v355.499c0 32.597-26.667 59.264-59.221 59.264v0zM496.555 167.253h59.221v296.235h-59.221v-296.235z" />
<glyph unicode="&#xe95b;" glyph-name="plus" d="M471.425 704v-214.133h-215.425v-79.555h215.425v-218.312h80.819v218.312h215.756v79.555h-215.756v214.133z" />
<glyph unicode="&#xe95c;" glyph-name="Promotion" d="M328.981 745.647c63.279 0 113.466-52.423 113.466-115.768 0-61.16-50.187-113.584-113.466-113.584s-115.648 52.423-115.648 113.584c0 63.345 52.369 115.768 115.648 115.768zM239.518 221.415l458.228 567.918 89.464-72.082-458.228-567.918-89.464 72.082zM697.746 160.255c-150.561 0-150.561 229.352 0 229.352s150.561-229.352 0-229.352z" />
<glyph unicode="&#xe95d;" glyph-name="register-process-circle" d="M768 448c0-141.385-114.615-256-256-256s-256 114.615-256 256c0 141.385 114.615 256 256 256s256-114.615 256-256z" />
<glyph unicode="&#xe95e;" glyph-name="Rejected" d="M512 21.333c-235.641 0-426.667 191.025-426.667 426.667s191.025 426.667 426.667 426.667c235.641 0 426.667-191.025 426.667-426.667s-191.025-426.667-426.667-426.667zM367.505 202.938c42.348-25.023 91.745-39.383 144.495-39.383 157.094 0 284.444 127.35 284.444 284.444 0 52.751-14.359 102.148-39.383 144.495l-389.557-389.557zM266.938 303.505l389.557 389.557c-42.348 25.023-91.745 39.383-144.495 39.383-157.094 0-284.444-127.35-284.444-284.444 0-52.751 14.359-102.148 39.383-144.495z" />
<glyph unicode="&#xe95f;" glyph-name="Report" d="M469.333 789.342h341.333v-682.667h-597.333v426.667h256v256zM611.556 246.053h56.889v287.289h-56.889v-287.289zM469.333 246.053h56.889v201.927h-56.889v-201.927zM327.111 246.053h56.917v116.622h-56.917v-116.622zM412.444 789.333v-199.111h-199.111l199.111 199.111z" />
<glyph unicode="&#xe960;" glyph-name="airconditioner" d="M903.111 440.889c21.333 0 35.556-14.222 35.556-35.556v-320c0-21.333-14.222-35.556-35.556-35.556h-782.222c-21.333 0-35.556 14.222-35.556 35.556v320c0 21.333 14.222 35.556 35.556 35.556h782.222zM796.444 192v71.111h-568.889v-71.111h568.889zM512 583.111c-21.333 0-35.556 14.222-35.556 35.556v177.778c0 21.333 14.222 35.556 35.556 35.556s35.556-14.222 35.556-35.556v-177.778c0-21.333-14.222-35.556-35.556-35.556zM334.222 512c-21.333 0-35.556 14.222-35.556 35.556v106.667c0 21.333 14.222 35.556 35.556 35.556s35.556-14.222 35.556-35.556v-106.667c0-21.333-14.222-35.556-35.556-35.556zM689.778 512c-21.333 0-35.556 14.222-35.556 35.556v106.667c0 21.333 14.222 35.556 35.556 35.556s35.556-14.222 35.556-35.556v-106.667c0-21.333-14.222-35.556-35.556-35.556z" />
<glyph unicode="&#xe961;" glyph-name="airport" d="M938.667 277.333v85.333l-341.333 213.333v234.667c0 35.413-28.587 64-64 64s-64-28.587-64-64v-234.667l-341.333-213.333v-85.333l341.333 106.667v-234.667l-85.333-64v-64l149.333 42.667 149.333-42.667v64l-85.333 64v234.667l341.333-106.667z" />
<glyph unicode="&#xe962;" glyph-name="beach" d="M560.032 338.826l61.013 61.013 274.773-274.901-60.885-60.885-274.901 274.773zM743.2 583.306l122.027 122.027c-168.533 168.533-441.6 168.96-610.133 0.853 167.68 55.467 354.56 10.667 488.107-122.88v0zM253.814 704.906c-168.107-168.533-167.68-441.6 0.853-610.133l122.027 122.027c-133.547 133.547-178.347 320.427-122.88 488.107zM254.667 705.76l-0.427-0.427c-16.213-128.427 49.92-293.547 183.467-427.52l244.48 244.48c-133.547 133.547-299.093 199.68-427.52 183.467z" />
<glyph unicode="&#xe963;" glyph-name="breakfast" d="M810.667 832h-682.667v-426.667c0-94.293 76.373-170.667 170.667-170.667h256c94.293 0 170.667 76.373 170.667 170.667v128h85.333c47.36 0 85.333 38.4 85.333 85.333v128c0 47.36-37.973 85.333-85.333 85.333zM810.667 618.667h-85.333v128h85.333v-128zM128 149.333h682.667v-85.333h-682.667v85.333z" />
<glyph unicode="&#xe964;" glyph-name="center" d="M512 746.667c-165.013 0-298.667-133.653-298.667-298.667s133.653-298.667 298.667-298.667c165.013 0 298.667 133.653 298.667 298.667s-133.653 298.667-298.667 298.667zM512 21.333c-235.886 0-426.667 190.781-426.667 426.667s190.781 426.667 426.667 426.667c235.886 0 426.667-190.781 426.667-426.667s-190.781-426.667-426.667-426.667zM512 277.333c-94.354 0-170.667 76.312-170.667 170.667s76.312 170.667 170.667 170.667c94.354 0 170.667-76.312 170.667-170.667s-76.312-170.667-170.667-170.667z" />
<glyph unicode="&#xe965;" glyph-name="Checkin" d="M369.778 270.222h-263.111c-11.782 0-21.333 9.551-21.333 21.333v28.444c0 11.782 9.551 21.333 21.333 21.333h263.111v96.675c0 11.782 9.551 21.333 21.333 21.333 4.991 0 9.823-1.75 13.657-4.945l158.676-132.23c9.051-7.543 10.274-20.995 2.731-30.046-0.826-0.991-1.74-1.905-2.731-2.731l-158.676-132.23c-9.051-7.543-22.503-6.32-30.046 2.731-3.195 3.834-4.945 8.667-4.945 13.657v96.675zM120.889 768h177.778v71.111c0 19.637 15.919 35.556 35.556 35.556s35.556-15.919 35.556-35.556v-71.111h284.444v71.111c0 19.637 15.919 35.556 35.556 35.556s35.556-15.919 35.556-35.556v-71.111h177.778c19.637 0 35.556-15.919 35.556-35.556v-640c0-19.637-15.919-35.556-35.556-35.556h-512c-11.782 0-21.333 9.551-21.333 21.333v28.444c0 11.782 9.551 21.333 21.333 21.333h455.111c11.782 0 21.333 9.551 21.333 21.333v455.111c0 11.782-9.551 21.333-21.333 21.333h-668.444c-11.782 0-21.333-9.551-21.333-21.333v-99.556c0-11.782-9.551-21.333-21.333-21.333h-28.444c-11.782 0-21.333 9.551-21.333 21.333v227.556c0 19.637 15.919 35.556 35.556 35.556z" />
<glyph unicode="&#xe966;" glyph-name="Checkout" d="M725.333 270.222h-263.111c-11.782 0-21.333 9.551-21.333 21.333v28.444c0 11.782 9.551 21.333 21.333 21.333h263.111v96.675c0 11.782 9.551 21.333 21.333 21.333 4.991 0 9.823-1.75 13.657-4.945l158.676-132.23c9.051-7.543 10.274-20.995 2.731-30.046-0.826-0.991-1.74-1.905-2.731-2.731l-158.676-132.23c-9.051-7.543-22.503-6.32-30.046 2.731-3.195 3.834-4.945 8.667-4.945 13.657v96.675zM903.111 768c19.637 0 35.556-15.919 35.556-35.556v-227.556c0-11.782-9.551-21.333-21.333-21.333h-28.444c-11.782 0-21.333 9.551-21.333 21.333v99.556c0 11.782-9.551 21.333-21.333 21.333h-668.444c-11.782 0-21.333-9.551-21.333-21.333v-455.111c0-11.782 9.551-21.333 21.333-21.333h455.111c11.782 0 21.333-9.551 21.333-21.333v-28.444c0-11.782-9.551-21.333-21.333-21.333h-512c-19.637 0-35.556 15.919-35.556 35.556v640c0 19.637 15.919 35.556 35.556 35.556h177.778v71.111c0 19.637 15.919 35.556 35.556 35.556s35.556-15.919 35.556-35.556v-71.111h284.444v71.111c0 19.637 15.919 35.556 35.556 35.556s35.556-15.919 35.556-35.556v-71.111h177.778z" />
<glyph unicode="&#xe967;" glyph-name="children" d="M512 490.667c-47.132 0-85.333 38.201-85.333 85.333s38.201 85.333 85.333 85.333c47.132 0 85.333-38.201 85.333-85.333s-38.201-85.333-85.333-85.333zM568.889-21.333h-113.778c-15.701 0-28.444 12.743-28.444 28.444v170.667h-85.333v170.667c0 47.132 38.201 85.333 85.333 85.333h170.667c47.132 0 85.333-38.201 85.333-85.333v-170.667h-85.333v-170.667c0-15.701-12.743-28.444-28.444-28.444z" />
<glyph unicode="&#xe968;" glyph-name="coffeemachine" d="M904.533 396.8v-139.947c0-119.467-105.813-218.453-232.107-201.387-102.4 13.653-177.493 109.227-177.493 211.627v129.707h409.6zM870.4 874.667c20.48 0 34.133-13.653 34.133-34.133v-204.8c0-20.48-13.653-34.133-34.133-34.133h-136.533v-136.533h-68.267v136.533h-273.067v-512c0-20.48-13.653-34.133-34.133-34.133h-238.933c-20.48 0-34.133 13.653-34.133 34.133v750.933c0 20.48 13.653 34.133 34.133 34.133h750.933z" />
<glyph unicode="&#xe969;" glyph-name="favorite-uncheck" d="M883.584 774.187c-100.97 100.718-262.057 107.894-371.584 16.555-109.534 91.319-270.605 84.143-371.584-16.555-52.053-52.053-80.683-121.216-80.683-194.859s28.629-142.848 80.683-194.859l323.328-323.328c13.312-13.312 30.805-19.968 48.256-19.968s34.944 6.656 48.256 19.968l323.328 323.328c51.864 51.554 80.921 121.731 80.683 194.859 0.229 73.126-28.827 143.299-80.683 194.859v0zM847.403 420.693l-323.371-323.328c-6.662-6.645-17.445-6.645-24.107 0l-323.328 323.328c-42.2 41.983-65.846 99.108-65.664 158.635 0 59.947 23.296 116.267 65.664 158.635 43.733 43.733 101.205 65.621 158.635 65.621s114.901-21.845 158.635-65.621c10.009-9.987 26.215-9.987 36.224 0 87.684 87.476 229.628 87.476 317.312 0 42.209-41.978 65.856-99.106 65.664-158.635 0.196-59.53-23.451-116.659-65.664-158.635z" />
<glyph unicode="&#xe96a;" glyph-name="fitness" d="M740.089 671.538l66.596-24.96-116.907-311.68v-278.009h-355.556v278.009l-116.907 311.751 66.596 24.889 110.507-294.649h235.164l110.507 294.649zM512 412.444c-58.91 0-106.667 47.756-106.667 106.667s47.756 106.667 106.667 106.667c58.91 0 106.667-47.756 106.667-106.667s-47.756-106.667-106.667-106.667zM938.667 768v-71.111h-35.556v-71.111c0-19.637-15.919-35.556-35.556-35.556s-35.556 15.919-35.556 35.556v71.111h-640v-71.111c0-19.637-15.919-35.556-35.556-35.556s-35.556 15.919-35.556 35.556v71.111h-35.556v71.111h35.556v71.111c0 19.637 15.919 35.556 35.556 35.556s35.556-15.919 35.556-35.556v-71.111h640v71.111c0 19.637 15.919 35.556 35.556 35.556s35.556-15.919 35.556-35.556v-71.111h35.556z" />
<glyph unicode="&#xe96b;" glyph-name="meeting-room1" d="M903.111 234.667c19.662 0 35.556-15.929 35.556-35.556s-15.893-35.556-35.556-35.556h-234.169l81.529-81.529-50.276-50.276-131.804 131.804h-20.836v-106.667h-71.111v106.667h-20.836l-131.804-131.804-50.276 50.276 81.529 81.529h-234.169c-19.662 0-35.556 15.929-35.556 35.556s15.893 35.556 35.556 35.556h782.222zM832 874.667c19.627 0 35.556-15.929 35.556-35.556v-533.333h-711.111v533.333c0 19.627 15.929 35.556 35.556 35.556h640zM405.333 448v142.222h-71.111v-142.222h71.111zM547.556 448v284.444h-71.111v-284.444h71.111zM689.778 448v213.333h-71.111v-213.333h71.111z" />
<glyph unicode="&#xe96c;" glyph-name="non-smoking" d="M85.333 712.127l284.038-284.444h-284.038v-121.905h405.943l284.444-284.444 51.2 50.794-690.794 690.794-50.794-50.794zM837.079 427.683h60.952v-121.905h-60.952v121.905zM735.492 427.683h60.952v-121.905h-60.952v121.905zM770.032 757.638c25.194 24.787 40.635 58.921 40.635 96.711h-60.952c0-41.448-33.727-75.175-75.175-75.175v-60.952c91.022 0 162.54-74.362 162.54-165.384v-84.521h60.952v84.521c0 90.616-52.013 168.635-128 204.8zM593.27 602.413h62.171c42.667 0 80.051-30.070 80.051-83.302v-50.794h60.952v64.61c0 73.143-65.016 128.406-141.003 128.406h-62.171c-41.448 0-75.175 39.822-75.175 81.27s33.727 71.111 75.175 71.111v60.952c-75.175 0-136.127-60.952-136.127-136.127s60.952-136.127 136.127-136.127zM694.857 308.622v119.060h-119.060l119.060-119.060z" />
<glyph unicode="&#xe96d;" glyph-name="pet" d="M192 490.667c-58.91 0-106.667 47.756-106.667 106.667s47.756 106.667 106.667 106.667c58.91 0 106.667-47.756 106.667-106.667s-47.756-106.667-106.667-106.667zM384 661.333c-58.91 0-106.667 47.756-106.667 106.667s47.756 106.667 106.667 106.667c58.91 0 106.667-47.756 106.667-106.667s-47.756-106.667-106.667-106.667zM640 661.333c-58.91 0-106.667 47.756-106.667 106.667s47.756 106.667 106.667 106.667c58.91 0 106.667-47.756 106.667-106.667s-47.756-106.667-106.667-106.667zM832 490.667c-58.91 0-106.667 47.756-106.667 106.667s47.756 106.667 106.667 106.667c58.91 0 106.667-47.756 106.667-106.667s-47.756-106.667-106.667-106.667zM739.84 368.64c55.893-55.893 124.587-117.76 111.36-204.8-12.373-43.093-43.52-86.613-99.413-98.987-31.147-5.973-130.56 18.773-236.373 18.773h-7.68c-105.813 0-205.227-25.173-236.373-18.773-55.893 12.373-87.040 55.467-99.413 98.987-12.8 86.613 55.893 148.48 111.787 204.373 37.547 43.52 68.693 80.64 105.813 124.16 20.053 23.040 44.8 46.080 74.667 56.32 4.693 1.707 9.387 2.987 14.080 3.84 11.093 2.133 22.613 2.133 33.707 2.133s22.613 0 33.28-1.707c4.693-0.853 9.387-2.133 14.080-3.84 29.867-10.24 55.040-33.28 74.667-56.32 37.547-43.52 68.693-80.64 105.813-124.16z" />
<glyph unicode="&#xe96e;" glyph-name="pool" d="M689.778 512c-58.91 0-106.667 47.756-106.667 106.667s47.756 106.667 106.667 106.667c58.91 0 106.667-47.756 106.667-106.667s-47.756-106.667-106.667-106.667zM461.724 512l-117.084 117.084c-13.88 13.884-13.88 36.391 0 50.276l131.804 131.804 50.276-50.276-106.667-106.667 223.751-223.609c13.88-13.884 13.88-36.391 0-50.276l-152.071-152.071c-42.403 2.803-81.344 24.379-106.204 58.844-27.795 34.916-74.976 47.854-116.693 32l192.889 192.889zM731.698 242.987c18.311-23.573 49.28-86.542 206.969-86.542v-71.111h-853.333v71.111c157.689 0 188.658 62.969 206.969 86.542 5.848 7.365 14.738 11.658 24.142 11.658s18.294-4.293 24.142-11.658c40.155-54.43 103.774-86.553 171.413-86.553s131.258 32.124 171.413 86.553c5.848 7.365 14.738 11.658 24.142 11.658s18.294-4.293 24.142-11.658z" />
<glyph unicode="&#xe96f;" glyph-name="restaurant" d="M616.96 250.098c22.809 9.762 44.784 21.368 65.707 34.702l164.053-163.911-50.276-50.276-179.484 179.484zM902.4 768c1.636-8.142 12.409-173.227-141.511-327.111-151.289-151.182-248.889-153.316-310.684-147.627l-233.067-233.067-50.276 50.276 294.862 294.862-56.391 56.391-45.973-45.973c-13.884-13.88-36.391-13.88-50.276 0l-202.916 202.916 50.276 50.276 177.778-177.778 20.836 20.836-177.778 177.778 50.276 50.276 177.778-177.778 20.836 20.836-177.778 177.778 50.276 50.276 202.916-202.916c13.88-13.884 13.88-36.391 0-50.276l-45.973-45.973 56.391-56.391 330.418 330.56c9.273 9.258 22.887 12.666 35.429 8.867s21.976-14.188 24.554-27.036z" />
<glyph unicode="&#xe970;" glyph-name="spa" d="M174.222 366.222c-1.001-103.063 47.123-200.447 129.6-262.258-81.167 7.443-153.147 55.211-191.538 127.111-67.164 122.133 10.951 407.289 22.471 438.933l8.747 30.116 30.116-8.747c42.426-11.468 84.105-25.539 124.8-42.133-64.178-87.218-124.196-192.64-124.196-283.022zM889.244 670.009c11.52-31.644 89.636-316.8 22.471-438.898-37.881-71.025-108.59-118.573-188.658-126.862 81.484 62.215 128.527 159.47 126.72 261.973 0 90.453-60.124 196.018-124.124 283.022 40.664 16.613 82.321 30.684 124.729 42.133l30.116 8.747 8.747-30.116zM536.889 785.778c28.444-24.889 259.556-263.111 259.556-419.556 0.395-75.236-29.563-147.453-83.097-200.318s-126.123-81.912-201.348-80.571c-75.039-0.711-147.262 28.541-200.658 81.269s-83.553 124.578-83.786 199.62c0 156.444 231.111 394.667 259.556 419.556l24.889 24.889 24.889-24.889z" />
<glyph unicode="&#xe971;" glyph-name="tv" d="M903.111 832h-782.222c-19.637 0-35.556-15.919-35.556-35.556v-568.889c0-19.637 15.919-35.556 35.556-35.556h320v-71.111h-177.778v-71.111h497.778v71.111h-177.778v71.111h320c19.637 0 35.556 15.919 35.556 35.556v568.889c0 19.637-15.919 35.556-35.556 35.556zM867.556 263.111h-711.111v497.778h711.111v-497.778z" />
<glyph unicode="&#xe972;" glyph-name="wifi" d="M85.333 552.727l77.576-77.576c192.776 192.776 505.406 192.776 698.182 0l77.576 77.576c-235.442 235.442-617.503 235.442-853.333 0zM395.636 242.424l116.364-116.364 116.364 116.364c-64 64.388-168.339 64.388-232.727 0zM240.485 397.576l77.576-77.576c107.055 107.055 280.824 107.055 387.879 0l77.576 77.576c-149.721 149.721-392.921 149.721-543.030 0z" />
<glyph unicode="&#xe973;" glyph-name="bar" d="M757.072 789.333h-490.143c-20.613 0-41.227-11.452-48.098-32.065-9.162-18.323-6.871-41.227 6.871-57.26l231.329-281.718v-226.29h-73.031c-47.128 0-85.333-38.205-85.333-85.333v0h426.667c0 47.128-38.205 85.333-85.333 85.333h-73.031v226.29l231.329 281.718c13.742 16.033 16.033 38.937 6.871 57.26-9.162 20.613-27.485 32.065-48.098 32.065z" />
<glyph unicode="&#xe974;" glyph-name="coffee-shop" d="M810.667 560.681c68.204 0 123.692-55.478 123.692-123.682 0-68.194-55.498-123.672-123.692-123.672h-47.927c-21.69-60.204-62.085-111.554-114.17-146.964h84.789v-59.697h-515.651v59.697h84.779c-79.496 54.036-131.821 145.183-131.821 248.329v146.327l640-0.338zM810.667 373.034c35.291 0 63.995 28.704 63.995 63.975 0 35.281-28.704 63.985-63.995 63.985h-30.276v-86.292c0-14.138-1.065-28.048-2.955-41.668h33.231zM306.348 632.984c66.303 80.541-66.303 161.112 0 241.683h55.23c-66.283-80.571 66.303-161.132 0-241.683h-55.23zM439.929 632.984c66.303 80.541-66.313 161.112 0 241.683h55.249c-66.303-80.571 66.303-161.132 0-241.683h-55.249zM573.521 632.984c66.303 80.541-66.303 161.112 0 241.683h55.249c-66.303-80.571 66.303-161.132 0-241.683h-55.249z" />
<glyph unicode="&#xe975;" glyph-name="meeting-room" d="M85.333 661.333v-426.667c0-70.692 57.308-128 128-128h597.333c70.692 0 128 57.308 128 128v426.667c0 70.692-57.308 128-128 128h-597.333c-70.692 0-128-57.308-128-128zM725.333 618.667c35.346 0 64-28.654 64-64s-28.654-64-64-64c-35.346 0-64 28.654-64 64s28.654 64 64 64zM512 618.667c35.346 0 64-28.654 64-64s-28.654-64-64-64c-35.346 0-64 28.654-64 64s28.654 64 64 64zM298.667 618.667c35.346 0 64-28.654 64-64s-28.654-64-64-64c-35.346 0-64 28.654-64 64s28.654 64 64 64zM384 192h-170.667v170.667c0 47.128 38.205 85.333 85.333 85.333s85.333-38.205 85.333-85.333v-170.667zM597.333 192h-170.667v170.667c0 47.128 38.205 85.333 85.333 85.333s85.333-38.205 85.333-85.333v-170.667zM810.667 192h-170.667v170.667c0 47.128 38.205 85.333 85.333 85.333s85.333-38.205 85.333-85.333v-170.667z" />
<glyph unicode="&#xe976;" glyph-name="motorbike" d="M783.515 766.060c14.989 0 27.152-12.151 27.152-27.15s-12.163-27.152-27.152-27.152h-138.494c-5.796-28.442-20.606-53.567-41.182-72.538 89.335-36.527 152.524-124.235 152.524-226.128v-196.034c0-36.627-29.804-66.429-66.429-66.429h-42.177v81.454c0 74.86-60.897 135.757-135.757 135.757s-135.757-60.897-135.757-135.757v-81.456h-39.172c-36.625 0-66.41 29.804-66.41 66.429v196.034c0 101.135 62.208 188.358 150.33 225.374-21.008 19.053-36.137 44.47-42.011 73.292h-138.494c-14.989 0-27.152 12.153-27.152 27.152s12.163 27.152 27.152 27.152h138.494c12.612 61.894 67.456 108.607 133.020 108.607s120.408-46.713 133.022-108.607h138.494zM511.999 313.537c44.916 0 81.454-36.539 81.454-81.454l0.001-129.093c0-44.916-36.539-81.454-81.454-81.454s-81.454 36.539-81.454 81.454l-0.001 129.093c0 44.916 36.539 81.454 81.454 81.454zM511.999 657.455c44.916 0 81.454 36.539 81.454 81.454s-36.539 81.454-81.454 81.454c-44.916 0-81.454-36.539-81.454-81.454s36.539-81.454 81.454-81.454z" />
<glyph unicode="&#xe977;" glyph-name="tennis-court" d="M231.056 709.168c69.384-65.664 112.944-158.328 112.944-261.168s-43.56-195.504-112.944-261.168c-63.744 68.568-103.056 160.152-103.056 261.168 0 100.992 39.312 192.6 103.056 261.168zM792.944 709.168c63.744-68.568 103.056-160.176 103.056-261.168 0-101.016-39.312-192.6-103.056-261.168-69.384 65.664-112.944 158.328-112.944 261.168s43.56 195.504 112.944 261.168zM632 448c0-115.728 48.648-220.128 126.336-294.456-66.72-55.848-152.544-89.544-246.336-89.544s-179.616 33.696-246.336 89.544c77.688 74.328 126.336 178.728 126.336 294.456s-48.648 220.104-126.336 294.456c66.72 55.824 152.544 89.544 246.336 89.544s179.616-33.72 246.336-89.544c-77.688-74.352-126.336-178.728-126.336-294.456z" />
<glyph unicode="&#xe978;" glyph-name="bathtub-massage" d="M99.556 448h824.889c7.855 0 14.222-6.368 14.222-14.222v-56.889c0-7.855-6.368-14.222-14.222-14.222h-16.788l-43.222-215.854c-7.884-39.4-42.157-67.896-82.212-68.578v-42.679c0-7.855-6.368-14.222-14.222-14.222h-56.889c-7.855 0-14.222 6.368-14.222 14.222v42.667h-369.778v-42.667c0-7.855-6.368-14.222-14.222-14.222h-56.889c-7.855 0-14.222 6.368-14.222 14.222v42.679c-40.051 0.679-74.328 29.176-82.212 68.577l-43.222 215.856h-16.788c-7.855 0-14.222 6.368-14.222 14.222v56.889c0 7.855 6.368 14.222 14.222 14.222zM725.333 78.222v-28.444h28.444v28.444h-28.444zM270.222 78.222v-28.444h28.444v28.444h-28.444zM810.667 234.667v42.667c-70.692 0-128-57.308-128-128h42.667c0 47.128 38.205 85.333 85.333 85.333zM298.667 149.333h42.667c0 70.692-57.308 128-128 128v-42.667c47.128 0 85.333-38.205 85.333-85.333zM810.667 320v42.667c-117.821 0-213.333-95.513-213.333-213.333h42.667c0 94.257 76.41 170.667 170.667 170.667zM341.333 618.667v42.667h42.667v-42.667h42.667v-42.667h-42.667v-42.667h-42.667v42.667h-42.667v42.667h42.667zM554.667 746.667v42.667h42.667v-42.667h42.667v-42.667h-42.667v-42.667h-42.667v42.667h-42.667v42.667h42.667z" />
<glyph unicode="&#xe979;" glyph-name="bathtub" d="M384 789.333v42.667h42.667v-42.667h42.667v-42.667h-42.667v-42.667h-42.667v42.667h-42.667v42.667h42.667zM128 746.667v42.667h42.667v-42.667h42.667v-42.667h-42.667v-42.667h-42.667v42.667h-42.667v42.667h42.667zM326.901 604.812c-25.198 18.754-59.716 18.754-84.914 0s-35.107-51.819-24.376-81.34c3.155-8.679-2.67-18.017-11.852-19-31.296-3.352-56.042-26.675-62.109-56.472h83.904c7.855 0 14.222-6.368 14.222-14.222v-128c0-7.855 6.368-14.222 14.222-14.222s14.222 6.368 14.222 14.222v28.444c0 23.564 19.103 42.667 42.667 42.667s42.667-19.103 42.667-42.667v-99.556c0-7.855 6.368-14.222 14.222-14.222s14.222 6.368 14.222 14.222v199.111c0 7.855 6.368 14.222 14.222 14.222h169.227c-5.159 25.24-23.775 46.181-49.159 53.829-30.028 9.047-62.437-2.646-79.772-28.78-5.627-8.483-18.083-8.48-23.707 0.004-11.694 17.644-30.64 29.161-51.686 31.419-0.212 0.023-0.422 0.050-0.63 0.081-2.3 0.227-4.611 0.339-6.978 0.335-12.467 0.033-24.72-3.235-35.515-9.471l-14.228 24.63c14.72 8.504 31.374 13.072 48.303 13.278 5.564 26.773-4.752 54.796-27.176 71.485zM853.333 448v42.667h-28.444v28.444h28.444v199.111c0 70.692-57.308 128-128 128h-28.444v-43.847c40.359-6.771 71.111-41.871 71.111-84.153v-14.222c0-7.855-6.368-14.222-14.222-14.222h-142.222c-7.855 0-14.222 6.368-14.222 14.222v14.222c0 42.283 30.753 77.383 71.111 84.153v58.069c0 7.855 6.368 14.222 14.222 14.222h42.667c86.402 0 156.444-70.043 156.444-156.444v-199.111h28.444v-28.444h-28.444v-42.667h42.667c7.855 0 14.222-6.368 14.222-14.222v-56.889c0-7.855-6.368-14.222-14.222-14.222h-16.788l-43.222-215.854c-7.884-39.4-42.157-67.896-82.212-68.578v-42.679c0-7.855-6.368-14.222-14.222-14.222h-56.889c-7.855 0-14.222 6.368-14.222 14.222v42.667h-369.778v-42.667c0-7.855-6.368-14.222-14.222-14.222h-56.889c-7.855 0-14.222 6.368-14.222 14.222v42.679c-40.051 0.679-74.328 29.176-82.212 68.577l-43.222 215.856h-16.788c-7.855 0-14.222 6.368-14.222 14.222v56.889c0 7.855 6.368 14.222 14.222 14.222h15.236c5.602 39.022 33.903 71.12 71.752 81.66-6.827 36.838 7.656 75.043 38.462 97.97 35.277 26.255 83.602 26.255 118.879 0 30.809-22.93 45.292-61.141 38.459-97.983 16.827-4.704 32.117-13.758 44.324-26.223 25.544 26.082 63.904 36.463 99.829 25.639 37.433-11.278 64.353-43.205 69.816-81.064h257.022zM725.333 78.222v-28.444h28.444v28.444h-28.444zM270.222 78.222v-28.444h28.444v28.444h-28.444zM739.556 718.222c0 31.419-25.47 56.889-56.889 56.889s-56.889-25.47-56.889-56.889h113.778z" />
<glyph unicode="&#xe97a;" glyph-name="free-toiletries" d="M475.88 701.793c-37.926 62.529-50.568 110.345-55.986 134.253l43.344 38.621c0 0 16.254-57.011 37.926-114.023-7.224-22.069-16.254-42.299-25.284-58.851zM607.718 834.207c-9.030-34.943-36.12-119.54-122.808-222.529 3.612 22.069 9.030 44.138 19.866 64.368 30.702 51.494 63.21 154.483 72.24 185.747l30.702-27.586zM380.162 538.115l21.672 82.759-113.778-196.782-117.39 23.908 142.674 334.713 68.628 31.264c9.030-33.103 28.896-88.276 72.24-158.161-16.254-51.494-10.836-106.667-10.836-115.862v-1.839h-63.21zM443.372 497.655v-476.322h-101.136v375.172l27.090 101.149h74.046zM654.674 497.655l27.090-101.149v-375.172h-198.66v476.322h171.57zM708.854 784.552l144.48-334.713-117.39-23.908-113.778 196.782 21.672-84.598h-160.734v9.195c108.36 117.701 148.092 217.011 160.734 266.667l65.016-29.425z" />
<glyph unicode="&#xe97b;" glyph-name="hair-dryer" d="M755.2 377.6l-80.213-300.373c-2.56-10.24-11.093-16.213-20.48-16.213h-151.040c-11.947 0-21.333 9.387-21.333 21.333 0 2.56 0.853 5.12 0.853 6.827l80.213 296.96c-12.8 4.267-25.6 10.24-38.4 15.36-85.333 34.133-190.293 76.8-384.853 47.787-11.947-1.707-23.040 5.973-24.747 17.92v260.267c0 11.947 9.387 21.333 21.333 21.333 1.707 0 2.56 0 4.267 0 194.56-29.867 298.667 12.8 384 46.933 51.2 21.333 95.573 39.253 148.48 39.253 64.853 0 123.733-26.453 166.4-69.12s69.12-101.547 69.12-167.253c0-64.853-26.453-123.733-69.12-167.253-23.040-23.040-52.053-41.813-84.48-53.76z" />
<glyph unicode="&#xe97c;" glyph-name="mirror" d="M213.333 21.333h597.333v853.333h-597.333v-853.333zM402.635 256.161l142.222 142.222 33.517-33.517-142.222-142.222-33.517 33.517zM554.68 198.931l-33.517 33.517 94.815 94.815 33.517-33.517-94.815-94.815zM625.791 625.598l-94.815-94.815-33.517 33.517 94.815 94.815 33.517-33.517zM521.153 730.235l33.517-33.517-142.222-142.222-33.517 33.517 142.222 142.222z" />
<glyph unicode="&#xe97d;" glyph-name="standing-shower" d="M512 789.158c25.823 0 67.247-6.708 85.333-18.405v-23.763h-170.667v23.763c18.086 11.696 59.51 18.405 85.333 18.405zM213.343 874.667h275.902v-44.428c-34.752-4.142-80.075-17.667-103.313-40.905v-85.333h254.649v85.333c-23.238 23.238-71.073 36.764-105.825 40.905v44.428h275.911v-853.333h-597.324v853.333zM576 490.667c-11.782 0-21.333-9.551-21.333-21.333s9.551-21.333 21.333-21.333c11.782 0 21.333 9.551 21.333 21.333s-9.551 21.333-21.333 21.333zM448 533.333c-11.782 0-21.333-9.551-21.333-21.333v-42.667c0-11.782 9.551-21.333 21.333-21.333s21.333 9.551 21.333 21.333v42.667c0 11.782-9.551 21.333-21.333 21.333zM448 405.333c-11.782 0-21.333-9.551-21.333-21.333v-42.667c0-11.782 9.551-21.333 21.333-21.333s21.333 9.551 21.333 21.333v42.667c0 11.782-9.551 21.333-21.333 21.333zM576 405.333c-11.782 0-21.333-9.551-21.333-21.333v-42.667c0-11.782 9.551-21.333 21.333-21.333s21.333 9.551 21.333 21.333v42.667c0 11.782-9.551 21.333-21.333 21.333zM576 277.333c-11.782 0-21.333-9.551-21.333-21.333s9.551-21.333 21.333-21.333c11.782 0 21.333 9.551 21.333 21.333s-9.551 21.333-21.333 21.333zM448 277.333c-11.782 0-21.333-9.551-21.333-21.333s9.551-21.333 21.333-21.333c11.782 0 21.333 9.551 21.333 21.333s-9.551 21.333-21.333 21.333zM448 618.667c-11.782 0-21.333-9.551-21.333-21.333s9.551-21.333 21.333-21.333c11.782 0 21.333 9.551 21.333 21.333s-9.551 21.333-21.333 21.333zM576 618.667c-11.782 0-21.333-9.551-21.333-21.333v-42.667c0-11.782 9.551-21.333 21.333-21.333s21.333 9.551 21.333 21.333v42.667c0 11.782-9.551 21.333-21.333 21.333z" />
<glyph unicode="&#xe97e;" glyph-name="toilet" d="M832.815 468.928h-407.016c-11.335 0-20.507-9.616-20.507-21.472v-18.169h-58.112v404.081c0 2.91-0.556 5.681-1.559 8.199h8.326v33.1h-183.279v-33.1h8.314c-1.003-2.531-1.559-5.289-1.559-8.199v-412.749c0-11.868 9.184-21.472 20.507-21.472h45.315v-31.582c0 0 10.259-110.042 97.41-110.042v-193.247h-33.316v-42.944h481.914v42.944h-33.328v193.234c87.15 0 97.41 110.042 97.41 110.042v79.903c-0.012 11.868-9.196 21.472-20.519 21.472z" />
<glyph unicode="&#xe97f;" glyph-name="towel" d="M216.615 425.026h-65.641c-36.103 0-65.641 29.538-65.641 65.641v36.103c0 29.538 19.692 55.795 49.231 62.359l344.615 91.897v6.564c0 45.949 22.974 72.205 42.667 88.615 16.41 16.41 22.974 22.974 22.974 42.667s-13.128 32.821-32.821 32.821c-9.846 0-19.692-3.282-26.256-13.128-3.282-3.282-9.846-13.128-6.564-29.538l-65.641-13.128c-6.564 29.538 0 59.077 19.692 82.051s49.231 39.385 78.769 39.385c55.795 0 98.462-42.667 98.462-98.462 0-45.949-22.974-72.205-42.667-88.615-16.41-16.41-22.974-22.974-22.974-42.667v-6.564l344.615-91.897c29.538-6.564 49.231-32.821 49.231-62.359v-36.103c0-36.103-29.538-65.641-65.641-65.641h-65.641v-229.744h-590.769v229.744zM216.615 490.667c0 19.692 13.128 32.821 32.821 32.821h525.128c19.692 0 32.821-13.128 32.821-32.821h65.641v36.103l-361.026 95.179-361.026-95.179v-36.103h65.641zM216.615 129.641h590.769v-65.641h-590.769v65.641z" />
<glyph unicode="&#xe980;" glyph-name="washbasin" d="M298.669 21.333h-128.003v426.667h42.667v256.004c0 94.246 76.417 170.662 170.664 170.662s170.664-76.416 170.664-170.662h-85.326c0 47.13-38.208 85.338-85.338 85.338s-85.338-38.208-85.338-85.338v-256.009h85.338v85.338h85.338v-85.338h383.997c0-141.383-114.613-255.996-255.996-255.996h-298.668v-170.667z" />
<glyph unicode="&#xe981;" glyph-name="GR" d="M42.667 789.333h938.667c23.564 0 42.667-19.103 42.667-42.667v-597.333c0-23.564-19.103-42.667-42.667-42.667h-938.667c-23.564 0-42.667 19.103-42.667 42.667v597.333c0 23.564 19.103 42.667 42.667 42.667zM146.963 789.333h85.333v-417.185h-85.333v417.185zM0 557.037v85.333h379.259v-85.333h-379.259zM379.259 632.889v85.333h644.741v-85.333h-644.741zM379.259 481.185v85.333h644.741v-85.333h-644.741zM0 329.481v85.333h1024v-85.333h-1024zM0 177.778v85.333h1024v-85.333h-1024z" />
<glyph unicode="&#xe982;" glyph-name="Baby-safety-gates_ic" d="M938.667 621.653v253.013h-853.333v-853.333h853.333v270.080h-85.333v-184.747h-682.667v682.667h682.667v-167.68zM606.293 485.547c0-17.437-14.136-31.573-31.573-31.573s-31.573 14.136-31.573 31.573c0 17.437 14.136 31.573 31.573 31.573s31.573-14.136 31.573-31.573zM480.853 485.547c0-17.437-14.136-31.573-31.573-31.573s-31.573 14.136-31.573 31.573c0 17.437 14.136 31.573 31.573 31.573s31.573-14.136 31.573-31.573zM786.773 431.36c0.815 5.002 1.28 10.766 1.28 16.64s-0.465 11.638-1.361 17.26l0.081-0.62c-6.701 38.127-34.181 68.457-70.117 79.178l-0.71 0.182c-13.642 29.23-32.027 54.031-54.434 74.505l-0.179 0.162c-39.516 35.226-91.911 56.75-149.333 56.75s-109.817-21.525-149.557-56.946l0.223 0.195c-22.866-20.43-41.305-45.289-54.051-73.288l-0.562-1.379c-36.645-10.903-64.126-41.233-70.739-78.757l-0.088-0.603c-0.815-5.002-1.28-10.766-1.28-16.64s0.465-11.638 1.361-17.26l-0.081 0.62c6.701-38.127 34.181-68.457 70.117-79.178l0.71-0.182c13.101-29.393 31.413-54.266 53.981-74.486l0.205-0.181c39.41-35.483 91.837-57.186 149.333-57.186s109.923 21.704 149.535 57.365l-0.202-0.179c22.476 20.015 40.834 44.103 54.016 71.175l0.597 1.359c37.373 11.083 65.253 42.389 71.183 80.934l0.071 0.56zM687.787 397.653h-7.253c-5.427-17.707-12.831-33.133-22.17-47.161l0.41 0.654c-31.664-48.297-85.545-79.753-146.773-79.753s-115.11 31.456-146.365 79.090l-0.409 0.664c-8.929 13.374-16.333 28.8-21.423 45.243l-0.337 1.264h-7.253c-27.806 0-50.347 22.541-50.347 50.347s22.541 50.347 50.347 50.347h7.253c5.427 17.707 12.831 33.133 22.17 47.161l-0.41-0.654c31.664 48.297 85.545 79.753 146.773 79.753s115.11-31.456 146.365-79.090l0.409-0.664c9.754-13.607 17.858-29.294 23.525-46.103l0.368-1.257h7.253c27.806 0 50.347-22.541 50.347-50.347s-22.541-50.347-50.347-50.347v0zM398.933 397.653c19.214-44.321 62.586-74.761 113.067-74.761s93.852 30.441 112.759 73.967l0.307 0.794z" />
<glyph unicode="&#xe983;" glyph-name="shopping-cart" d="M298.667 192c-46.933 0-84.907-38.4-84.907-85.333s37.973-85.333 84.907-85.333c46.933 0 85.333 38.4 85.333 85.333s-38.4 85.333-85.333 85.333v0zM42.667 874.667v-85.333h85.333l153.6-323.84-57.6-104.533c-6.827-11.947-10.667-26.027-10.667-40.96 0-46.933 38.4-85.333 85.333-85.333h512v85.333h-494.080c-5.973 0-10.667 4.693-10.667 10.667l1.28 5.12 38.4 69.547h317.867c32 0 60.16 17.493 74.667 43.947l152.747 276.907c3.413 5.973 5.12 13.227 5.12 20.48 0 23.467-19.2 42.667-42.667 42.667h-631.040l-40.107 85.333h-139.52zM725.333 192c-46.933 0-84.907-38.4-84.907-85.333s37.973-85.333 84.907-85.333c46.933 0 85.333 38.4 85.333 85.333s-38.4 85.333-85.333 85.333v0z" />
</font>
</defs>
</svg>
